<svg width="294" height="295" viewBox="0 0 294 295" fill="none" xmlns="http://www.w3.org/2000/svg">
<g clip-path="url(#clip0_70_1233)">
<mask id="path-1-inside-1_70_1233" fill="white">
<path d="M0 0H294V295H0V0Z"/>
</mask>
<path d="M210.071 139.18H155.248V166.775H210.071V139.18Z" fill="white"/>
<path d="M203.594 146.244H161.725V147.661H203.594V146.244Z" fill="#FECD07"/>
<path d="M203.594 152.268H161.725V153.686H203.594V152.268Z" fill="#FECD07"/>
<path d="M203.594 158.294H161.725V159.712H203.594V158.294Z" fill="#FECD07"/>
<path d="M210.504 167.207H154.818V138.747H210.504V167.207ZM155.68 166.344H209.64V139.611H155.68V166.344Z" fill="#3F3D56"/>
<path d="M64.2063 146.644C52.5999 146.654 41.2211 143.428 31.3506 137.329L31.1001 137.174L31.2552 136.923L64.0434 83.9211H126.708V84.2169C126.708 118.638 98.6703 146.644 64.2063 146.644Z" fill="#FECD07"/>
<path d="M24.0018 124.138L23.8004 124.014C12.7383 117.181 4.76352 106.327 1.55679 93.7364C-1.64994 81.1464 0.161827 67.8045 6.61026 56.5225L6.72795 56.3174L50.5003 81.3015L24.0018 124.138Z" fill="#F2F2F2"/>
<path d="M126.708 75.5575H63.8396L77.3923 14.2292L77.6803 14.2925C91.5808 17.3614 104.017 25.0769 112.931 36.1633C121.846 47.2498 126.706 61.0432 126.708 75.2629V75.5575Z" fill="#D6D6E3"/>
<path d="M53.8258 65.8986L11.2288 41.5854L11.3431 41.3858C16.5073 32.3749 24.4173 25.2467 33.9205 21.0397C43.4237 16.8327 54.0235 15.7667 64.1756 17.997L64.4006 18.0466L53.8258 65.8986Z" fill="#F2F2F2"/>
<path d="M216.98 0.431396H162.157V28.0271H216.98V0.431396Z" fill="white"/>
<path d="M210.503 7.49536H168.635V8.91296H210.503V7.49536Z" fill="#D6D6E3"/>
<path d="M210.503 13.5203H168.635V14.9379H210.503V13.5203Z" fill="#D6D6E3"/>
<path d="M210.503 19.5452H168.635V20.9628H210.503V19.5452Z" fill="#D6D6E3"/>
<path d="M217.412 28.4584H161.725V0.00146484H217.412V28.4584ZM162.589 27.596H216.549V0.862745H162.589V27.596Z" fill="#D6D6E3"/>
<path d="M154.817 152.79H125.208L125.124 152.669L102.116 119.318L102.578 118.999L125.502 152.231H154.817V152.79Z" fill="#3F3D56"/>
<path d="M161.725 13.2678H132.116L132.032 13.3891L109.024 46.7405L109.486 47.0588L132.41 13.8275H161.724L161.725 13.2678Z" fill="#D6D6E3"/>
<path d="M256.166 104.356L248.14 104.667L248.54 114.975L256.567 114.664L256.166 104.356Z" fill="#FECD07"/>
<path d="M219.959 140.456C219.959 140.456 208.844 135.152 209.022 139.733C209.199 144.315 220.226 147.329 220.226 147.329L219.959 140.456Z" fill="#FFB9B9"/>
<path d="M226.058 179.22C226.058 179.22 220.814 192.04 218.876 201.291C216.938 210.543 213.988 223.274 217.783 232.305C221.579 241.335 232.37 267.872 232.481 270.735C232.592 273.597 231.556 276.505 233.85 276.417C236.145 276.328 248.623 272.403 249.129 270.663C249.636 268.923 244.872 264.519 244.872 264.519L233.107 227.696L245.382 203.706L254.235 239.495L255.969 284.162C255.969 284.162 264.481 281.537 265.716 283.785C265.716 283.785 269.527 278.475 270.013 276.162C270.499 273.85 268.212 229.777 268.212 229.777C268.212 229.777 276.025 179.579 269.718 179.823C263.412 180.067 238.71 164.965 226.058 179.22Z" fill="#090814"/>
<path d="M233.761 274.125C233.761 274.125 227.943 286.967 227.392 287.562C226.841 288.157 223.05 294.039 225.917 293.928C228.784 293.817 235.552 290.687 240.535 285.907C245.517 281.126 252.085 272.842 251.489 272.291C250.893 271.741 246.813 270.178 246.813 270.178L233.761 274.125Z" fill="#090814"/>
<path d="M257.005 281.254C257.005 281.254 256.654 287.003 255.596 289.338C254.538 291.673 254.671 295.109 257.538 294.998C260.406 294.887 267.813 293.453 267.813 293.453C267.813 293.453 268.253 289.995 267.658 289.444C267.062 288.894 264.525 282.683 265.604 280.921C266.684 279.159 257.005 281.254 257.005 281.254Z" fill="#090814"/>
<path d="M261.246 94.6963C261.246 94.6963 267.357 104.21 269.739 106.411C272.121 108.613 265.419 113.461 265.419 113.461L253.424 115.072C253.424 115.072 253.575 104.17 252.957 103.047C252.339 101.924 261.246 94.6963 261.246 94.6963Z" fill="#FFB9B9"/>
<path d="M250.82 107.144C250.82 107.144 253.291 111.637 255.584 111.548C257.877 111.459 269.739 106.41 270.246 104.672C270.752 102.935 274.175 117.138 274.175 117.138L245.15 168.158L238.07 163.269L241.501 133.314L244.318 117.146L250.82 107.144Z" fill="#FECD07"/>
<path d="M271.316 152.805C270.159 155.224 269.435 157.747 269.535 160.33C269.54 160.444 269.544 160.559 269.555 160.673C269.829 165.973 271.784 172.103 272.485 176.56C272.994 179.758 272.849 182.092 270.976 182.641C266.434 183.964 271.638 184.909 254.065 190.752C236.493 196.594 233.426 191.551 233.382 190.406C233.337 189.26 235.87 180.559 235.275 180.009C234.679 179.459 226.942 187.214 224.604 186.157C222.266 185.101 224.337 179.286 224.337 179.286C224.337 179.286 229.603 167.038 229.492 164.174C229.381 161.311 237.469 147.807 237.469 147.807L242.971 112.036C242.971 112.036 245.086 107.365 247.93 106.682C250.774 105.998 253.134 107.627 253.134 107.627L248.374 118.135L243.352 136.682L244.193 143.532C244.193 143.532 250.032 131.262 253.867 126.525C257.702 121.788 265.88 110.575 265.88 110.575C265.88 110.575 267.789 104.141 266.348 102.218C264.906 100.289 272.359 99.9998 275.537 107.907C277.221 112.097 279.956 118.345 281.669 124.163C283.195 129.317 283.916 134.136 282.404 136.89C280.095 141.098 274.28 146.628 271.316 152.805Z" fill="#D6D6E3"/>
<path opacity="0.1" d="M282.406 136.891C280.094 141.098 274.28 146.629 271.316 152.805C270.542 150.019 269.598 147.137 269.598 147.137C269.598 147.137 265.975 127.778 276.69 122.774C278.466 122.603 280.241 123.099 281.671 124.164C283.197 129.318 283.918 134.137 282.406 136.891Z" fill="black"/>
<path d="M239.87 135.671L230.785 138.317L218.173 138.805L216.875 149.752L237.603 151.244C237.603 151.244 242.781 136.705 239.87 135.671Z" fill="#D6D6E3"/>
<path d="M254.683 172.479C254.683 172.479 242.53 174.492 245.303 178.145C248.077 181.798 258.843 177.958 258.843 177.958L254.683 172.479Z" fill="#FFB9B9"/>
<path opacity="0.1" d="M269.062 158.085C269.337 163.385 271.292 169.515 271.993 173.972C268.122 177.632 264.44 180.86 263.053 180.914C260.186 181.025 255.577 180.63 253.88 181.269C252.182 181.908 251.187 171.05 251.187 171.05C251.187 171.05 252.2 167.57 256.719 165.674C259.77 164.393 265.618 160.915 269.062 158.085Z" fill="black"/>
<path d="M276.557 119.338C276.557 119.338 286.259 117.815 285.735 133.894C285.211 149.973 286.757 160.236 282.855 163.255C278.953 166.273 266.278 179.956 263.411 180.067C260.545 180.177 255.936 179.783 254.239 180.422C252.541 181.061 251.545 170.203 251.545 170.203C251.545 170.203 252.558 166.723 257.078 164.827C261.598 162.931 272.246 156.21 272.157 153.919C272.069 151.629 269.464 143.701 269.464 143.701C269.464 143.701 265.842 124.341 276.557 119.338Z" fill="#D6D6E3"/>
<path d="M252.691 108.783C259.662 108.783 265.313 103.138 265.313 96.1751C265.313 89.2119 259.662 83.5671 252.691 83.5671C245.72 83.5671 240.068 89.2119 240.068 96.1751C240.068 103.138 245.72 108.783 252.691 108.783Z" fill="#FFB9B9"/>
<path d="M244.192 78.104C243.887 78.366 243.523 78.5487 243.13 78.6359C242.933 78.671 242.731 78.6268 242.566 78.513C242.402 78.3992 242.289 78.2251 242.253 78.0286C241.964 78.6267 241.638 79.2643 241.048 79.5715C240.459 79.8787 239.547 79.621 239.462 78.9623C239.376 79.4624 239.155 79.9294 238.822 80.3126C238.456 80.6612 237.793 80.7488 237.473 80.3577C237.732 81.7672 237.572 83.2166 237.653 84.6457C237.734 86.0747 238.116 87.5929 239.198 88.5336C240.776 89.9054 243.149 89.5686 245.225 89.3069C245.539 89.2412 245.865 89.259 246.169 89.3587C246.947 89.6895 246.911 90.7703 246.922 91.6135C246.985 93.0942 247.572 94.5045 248.578 95.5941C249.583 96.6837 250.943 97.3819 252.416 97.5648C253.239 97.6918 254.08 97.487 254.753 96.9952C255.342 96.4962 255.643 95.683 256.319 95.3081C257.417 94.6982 258.75 95.5876 259.553 96.5531C260.356 97.5186 261.148 98.7063 262.392 98.8819C264.038 99.1155 265.291 97.4403 265.908 95.8981C266.756 93.7362 267.162 91.4264 267.103 89.1051C267.044 86.7837 266.52 84.4977 265.562 82.3819C262.124 74.9032 250.386 73.72 244.192 78.104Z" fill="#090814"/>
<path d="M293.957 295H200.386V294.102H294L293.957 295Z" fill="#CBCBCB"/>
</g>
<path d="M294 295V294H0V295V296H294V295Z" fill="#E0E0E0" mask="url(#path-1-inside-1_70_1233)"/>
<defs>
<clipPath id="clip0_70_1233">
<path d="M0 0H294V295H0V0Z" fill="white"/>
</clipPath>
</defs>
</svg>
