<svg width="398" height="295" viewBox="0 0 398 295" fill="none" xmlns="http://www.w3.org/2000/svg">
<g clip-path="url(#clip0_70_1161)">
<mask id="path-1-inside-1_70_1161" fill="white">
<path d="M0 0H398V295H0V0Z"/>
</mask>
<path d="M397.501 18.3427H0.498128C0.362972 18.3427 0.233351 18.289 0.137781 18.1935C0.0422117 18.0979 -0.0114746 17.9683 -0.0114746 17.8331C-0.0114746 17.6979 0.0422117 17.5683 0.137781 17.4727C0.233351 17.3772 0.362972 17.3235 0.498128 17.3235H397.501C397.636 17.3235 397.766 17.3772 397.862 17.4727C397.957 17.5683 398.011 17.6979 398.011 17.8331C398.011 17.9683 397.957 18.0979 397.862 18.1935C397.766 18.289 397.636 18.3427 397.501 18.3427Z" fill="#CACACA"/>
<path d="M11.7164 11.2096C14.7443 11.2096 17.199 8.70022 17.199 5.60478C17.199 2.50935 14.7443 0 11.7164 0C8.68841 0 6.23376 2.50935 6.23376 5.60478C6.23376 8.70022 8.68841 11.2096 11.7164 11.2096Z" fill="#3F3D56"/>
<path d="M30.6555 11.2096C33.6834 11.2096 36.1381 8.70022 36.1381 5.60478C36.1381 2.50935 33.6834 0 30.6555 0C27.6275 0 25.1729 2.50935 25.1729 5.60478C25.1729 8.70022 27.6275 11.2096 30.6555 11.2096Z" fill="#3F3D56"/>
<path d="M49.595 11.2096C52.623 11.2096 55.0777 8.70022 55.0777 5.60478C55.0777 2.50935 52.623 0 49.595 0C46.5671 0 44.1124 2.50935 44.1124 5.60478C44.1124 8.70022 46.5671 11.2096 49.595 11.2096Z" fill="#3F3D56"/>
<path d="M386.152 3.42787H372.697C372.427 3.42787 372.167 3.32048 371.976 3.12934C371.785 2.9382 371.678 2.67896 371.678 2.40864C371.678 2.13832 371.785 1.87907 371.976 1.68793C372.167 1.49679 372.427 1.3894 372.697 1.3894H386.152C386.422 1.3894 386.681 1.49679 386.873 1.68793C387.064 1.87907 387.171 2.13832 387.171 2.40864C387.171 2.67896 387.064 2.9382 386.873 3.12934C386.681 3.32048 386.422 3.42787 386.152 3.42787Z" fill="#3F3D56"/>
<path d="M386.152 7.24965H372.697C372.427 7.24965 372.167 7.14226 371.976 6.95112C371.785 6.75997 371.678 6.50073 371.678 6.23042C371.678 5.9601 371.785 5.70085 371.976 5.50971C372.167 5.31856 372.427 5.21118 372.697 5.21118H386.152C386.422 5.21118 386.681 5.31856 386.873 5.50971C387.064 5.70085 387.171 5.9601 387.171 6.23042C387.171 6.50073 387.064 6.75997 386.873 6.95112C386.681 7.14226 386.422 7.24965 386.152 7.24965Z" fill="#3F3D56"/>
<path d="M386.152 11.0712H372.697C372.427 11.0712 372.167 10.9638 371.976 10.7727C371.785 10.5815 371.678 10.3223 371.678 10.0519C371.678 9.78163 371.785 9.52239 371.976 9.33125C372.167 9.1401 372.427 9.03271 372.697 9.03271H386.152C386.422 9.03271 386.681 9.1401 386.873 9.33125C387.064 9.52239 387.171 9.78163 387.171 10.0519C387.171 10.3223 387.064 10.5815 386.873 10.7727C386.681 10.9638 386.422 11.0712 386.152 11.0712Z" fill="#3F3D56"/>
<path d="M214.916 99.4079C216.103 100.093 217.09 101.076 217.78 102.26C218.47 103.444 218.839 104.788 218.85 106.158C218.861 107.528 218.514 108.878 217.843 110.073C217.173 111.267 216.202 112.267 215.026 112.971C213.851 113.675 212.512 114.06 211.142 114.088C209.772 114.116 208.418 113.785 207.215 113.129C206.012 112.473 205.002 111.514 204.283 110.347C203.565 109.181 203.163 107.846 203.119 106.477L203.115 106.222L203.119 105.967C203.163 104.608 203.558 103.284 204.266 102.123C204.974 100.963 205.971 100.006 207.159 99.345C208.348 98.6844 209.687 98.343 211.046 98.354C212.406 98.3651 213.739 98.7282 214.916 99.4079ZM213.5 108.018C213.426 107.946 213.339 107.889 213.243 107.85C213.147 107.812 213.045 107.792 212.942 107.793C212.838 107.794 212.736 107.816 212.641 107.856C212.546 107.897 212.46 107.955 212.388 108.029C212.205 108.216 211.986 108.365 211.745 108.466C211.503 108.568 211.244 108.62 210.982 108.62C210.721 108.62 210.462 108.568 210.22 108.466C209.979 108.365 209.76 108.216 209.577 108.029C209.431 107.88 209.232 107.795 209.023 107.793C208.815 107.791 208.614 107.872 208.465 108.018C208.316 108.164 208.231 108.363 208.229 108.572C208.227 108.781 208.308 108.982 208.454 109.131C208.784 109.467 209.177 109.734 209.611 109.917C210.045 110.099 210.512 110.193 210.982 110.193C211.453 110.193 211.92 110.099 212.354 109.917C212.788 109.734 213.181 109.467 213.511 109.131C213.583 109.057 213.64 108.969 213.679 108.874C213.718 108.778 213.737 108.675 213.736 108.572C213.735 108.469 213.714 108.367 213.673 108.272C213.633 108.177 213.574 108.09 213.5 108.018ZM208.63 103.859L208.531 103.864C208.331 103.887 208.147 103.985 208.017 104.139C207.888 104.293 207.822 104.491 207.834 104.692C207.845 104.893 207.934 105.082 208.081 105.22C208.227 105.357 208.421 105.434 208.623 105.433L208.722 105.427C208.922 105.405 209.106 105.306 209.236 105.152C209.365 104.998 209.431 104.8 209.419 104.599C209.408 104.398 209.319 104.21 209.172 104.072C209.026 103.934 208.832 103.858 208.63 103.859ZM213.351 103.859L213.251 103.864C213.051 103.887 212.867 103.985 212.738 104.139C212.608 104.293 212.542 104.491 212.554 104.692C212.566 104.893 212.654 105.082 212.801 105.22C212.948 105.357 213.142 105.434 213.343 105.433L213.443 105.427C213.643 105.405 213.827 105.306 213.956 105.152C214.086 104.998 214.152 104.8 214.14 104.599C214.128 104.398 214.04 104.21 213.893 104.072C213.746 103.934 213.552 103.858 213.351 103.859Z" fill="#E71E86"/>
<path d="M298.533 255.258L298.398 255.251H291.773C291.572 255.252 291.378 255.179 291.227 255.046C291.076 254.914 290.978 254.731 290.953 254.531L290.946 254.434V246.62C290.948 246.476 290.987 246.335 291.06 246.21C291.133 246.086 291.236 245.983 291.361 245.912C291.713 245.712 292.01 245.429 292.226 245.086C292.441 244.744 292.569 244.353 292.597 243.95L292.603 243.785V242.963C292.605 242.639 292.67 242.318 292.796 242.019C292.922 241.72 293.105 241.449 293.336 241.221C293.567 240.992 293.84 240.812 294.14 240.689C294.441 240.567 294.762 240.505 295.087 240.506C295.717 240.503 296.325 240.741 296.786 241.171C297.247 241.602 297.526 242.192 297.567 242.821L297.57 242.963V246.241H299.227C299.833 246.239 300.419 246.458 300.874 246.859C301.329 247.259 301.621 247.813 301.695 248.414L301.708 248.556L301.711 248.698L301.695 248.859L300.862 252.982C300.55 254.304 299.631 255.258 298.562 255.258L298.533 255.258ZM288.613 255.251C288.198 255.254 287.797 255.1 287.491 254.819C287.185 254.539 286.996 254.152 286.963 253.738L286.956 253.616V247.88C286.959 247.464 287.118 247.064 287.402 246.761C287.686 246.458 288.075 246.273 288.49 246.243L288.613 246.241H289.443C289.645 246.24 289.84 246.313 289.991 246.447C290.142 246.58 290.239 246.765 290.263 246.965L290.271 247.06V254.432C290.27 254.634 290.194 254.828 290.059 254.978C289.924 255.128 289.739 255.224 289.539 255.246L289.443 255.249L288.613 255.251Z" fill="#E71E86"/>
<path d="M267.568 251.872C245.11 251.872 220.705 248.534 196.465 242.117C166.488 234.181 139.003 222.202 116.98 207.475L117.632 206.5C139.551 221.155 166.912 233.08 196.765 240.982C223.743 248.125 250.922 251.434 275.357 250.561L275.399 251.734C272.818 251.827 270.208 251.873 267.568 251.872Z" fill="#090814"/>
<path d="M264.205 99.4419C256.911 97.0671 249.41 94.8558 241.907 92.8697C198.734 81.4399 156.296 77.3819 119.176 81.1365L119.058 79.9688C156.316 76.2023 198.9 80.2677 242.207 91.7353C249.729 93.728 257.254 95.9448 264.569 98.3265L264.205 99.4419Z" fill="#090814"/>
<path d="M66.3742 190.752C48.3801 173.037 40.7799 154.557 44.9738 138.715C50.3538 118.385 74.2649 104.328 110.571 100.15L110.705 101.316C74.9035 105.436 51.36 119.177 46.1106 139.015C42.0292 154.433 49.5189 172.509 67.1996 189.916L66.3742 190.752Z" fill="#090814"/>
<path d="M310.415 244.591L310.039 243.479C330.124 236.688 342.687 225.748 346.368 211.841C351.049 194.162 340.881 173.647 317.739 154.075C294.479 134.403 260.937 118.08 223.29 108.114L223.589 106.979C261.398 116.989 295.104 133.396 318.494 153.179C342.002 173.06 352.303 194 347.501 212.142C343.716 226.447 330.891 237.668 310.415 244.591Z" fill="#090814"/>
<path d="M110.683 247.883C66.5545 228.311 32.55 202.919 14.934 176.383L15.9118 175.736C33.4058 202.088 67.2315 227.329 111.158 246.812L110.683 247.883Z" fill="#090814"/>
<path d="M285.974 196.853C288.566 196.853 290.668 194.752 290.668 192.159C290.668 189.566 288.566 187.464 285.974 187.464C283.381 187.464 281.279 189.566 281.279 192.159C281.279 194.752 283.381 196.853 285.974 196.853Z" fill="#E6E6E6"/>
<path d="M198.623 66.639C201.216 66.639 203.318 64.5372 203.318 61.9444C203.318 59.3516 201.216 57.2498 198.623 57.2498C196.031 57.2498 193.929 59.3516 193.929 61.9444C193.929 64.5372 196.031 66.639 198.623 66.639Z" fill="#E6E6E6"/>
<path d="M100.251 242.022C100.251 243.217 100.291 244.413 100.374 245.597C100.463 247.013 100.615 248.42 100.823 249.817C101.517 254.519 102.843 259.106 104.766 263.453L105.061 264.101L105.211 264.425C105.261 264.533 105.314 264.641 105.363 264.745C105.432 264.887 105.496 265.025 105.562 265.163C105.646 265.335 105.73 265.507 105.818 265.679C105.828 265.698 105.837 265.723 105.852 265.748C105.926 265.897 105.995 266.038 106.074 266.186C106.088 266.218 106.105 266.249 106.123 266.279C106.207 266.447 106.295 266.618 106.384 266.786C106.483 266.963 106.576 267.145 106.674 267.322C106.91 267.76 107.155 268.192 107.407 268.625C107.48 268.753 107.556 268.881 107.633 269.009C107.701 269.127 107.77 269.245 107.844 269.363C107.894 269.442 107.944 269.525 107.993 269.604C108.072 269.737 108.151 269.865 108.234 269.998C108.416 270.287 108.603 270.578 108.785 270.868H108.79C108.874 271.001 108.963 271.133 109.051 271.261V271.266C109.311 271.66 109.582 272.053 109.852 272.441C109.854 272.441 109.855 272.442 109.856 272.443C109.857 272.444 109.857 272.445 109.857 272.446C110.074 272.761 110.3 273.066 110.521 273.371V273.376C110.671 273.568 110.811 273.765 110.959 273.956C111.077 274.114 111.2 274.276 111.323 274.434C111.347 274.468 111.377 274.497 111.402 274.533V274.538C111.436 274.583 111.47 274.622 111.505 274.666C112.026 275.335 112.564 275.989 113.118 276.628L113.206 276.732C113.236 276.766 113.27 276.8 113.3 276.84C113.35 276.894 113.394 276.948 113.443 277.002C113.491 277.056 113.536 277.11 113.585 277.164C116.473 280.418 119.748 283.307 123.337 285.766C123.814 286.095 124.301 286.413 124.787 286.725C124.91 286.803 125.034 286.882 125.156 286.956C125.19 286.98 125.23 287.006 125.264 287.03C125.333 287.069 125.397 287.108 125.463 287.153C125.53 287.197 125.591 287.231 125.66 287.271C125.921 287.433 126.186 287.59 126.452 287.748C126.516 287.787 126.585 287.827 126.651 287.866C126.717 287.905 126.784 287.94 126.85 287.979C126.85 287.984 126.85 287.984 126.855 287.984H126.86V287.989H126.865C127.195 288.181 127.529 288.367 127.868 288.549C128.05 288.649 128.237 288.749 128.424 288.844C128.847 289.075 129.275 289.297 129.703 289.508C129.856 289.582 130.013 289.658 130.165 289.735C130.293 289.793 130.421 289.858 130.549 289.916C130.588 289.936 130.623 289.951 130.657 289.971C130.765 290.02 130.868 290.07 130.977 290.12C131.095 290.174 131.213 290.228 131.326 290.283C131.459 290.341 131.586 290.401 131.719 290.454C132.211 290.676 132.707 290.887 133.204 291.089C134.984 291.818 136.803 292.449 138.653 292.977C138.737 293.001 138.825 293.027 138.913 293.051C139.705 293.272 140.502 293.474 141.305 293.656C142.706 293.98 144.121 294.246 145.548 294.453H145.558L146.07 294.526C146.085 294.526 146.099 294.531 146.12 294.531C146.12 294.536 146.12 294.536 146.125 294.531L146.69 294.605C146.703 294.609 146.716 294.61 146.729 294.61C146.906 294.634 147.088 294.654 147.265 294.674L147.841 294.733L148.283 294.777C148.296 294.781 148.309 294.783 148.322 294.782C148.455 294.792 148.588 294.806 148.721 294.816H148.741L149.085 294.846C150.457 294.954 151.834 295.003 153.231 295.003C154.741 295.003 156.24 294.944 157.72 294.816H157.735L158.684 294.728C158.768 294.718 158.847 294.713 158.93 294.703C158.945 294.703 158.965 294.698 158.98 294.698C159.005 294.693 159.03 294.693 159.059 294.688C159.072 294.689 159.086 294.687 159.098 294.683C159.206 294.673 159.315 294.659 159.428 294.649L159.796 294.605C159.919 294.59 160.042 294.57 160.165 294.555C160.194 294.55 160.219 294.55 160.249 294.545C160.337 294.535 160.425 294.52 160.514 294.505L160.642 294.49C160.731 294.476 160.814 294.466 160.903 294.451H160.908C163.606 294.063 166.27 293.464 168.874 292.658C169.011 292.613 169.149 292.574 169.287 292.53C169.292 292.53 169.297 292.525 169.302 292.525C169.341 292.51 169.386 292.5 169.425 292.485C169.794 292.367 170.158 292.244 170.521 292.117C171.022 291.949 171.517 291.768 172.015 291.581C172.148 291.526 172.281 291.478 172.414 291.423C172.684 291.32 172.95 291.212 173.215 291.103C173.668 290.922 174.12 290.73 174.568 290.533C174.986 290.346 175.399 290.159 175.813 289.963C175.823 289.958 175.838 289.958 175.848 289.948C175.941 289.903 176.034 289.859 176.123 289.815H176.128C178.393 288.728 180.577 287.48 182.664 286.082C183.333 285.635 183.991 285.172 184.64 284.695C185.161 284.307 185.673 283.913 186.185 283.51C188.708 281.503 191.043 279.271 193.163 276.842V276.837C193.315 276.669 193.458 276.497 193.605 276.325C193.629 276.301 193.649 276.275 193.669 276.256C193.762 276.143 193.851 276.035 193.944 275.927V275.922C194.067 275.78 194.19 275.632 194.308 275.484C194.337 275.45 194.362 275.42 194.387 275.391V275.386C194.486 275.268 194.578 275.149 194.677 275.026C194.726 274.968 194.77 274.908 194.819 274.85V274.845C195.109 274.48 195.389 274.117 195.67 273.743C195.744 273.644 195.819 273.544 195.896 273.438C196.25 272.961 196.593 272.474 196.929 271.988V271.983C197.057 271.801 197.178 271.614 197.307 271.432L197.676 270.871C197.799 270.674 197.925 270.483 198.049 270.286L198.064 270.257C198.187 270.07 198.311 269.873 198.428 269.681C198.522 269.524 198.615 269.371 198.709 269.219C198.767 269.116 198.832 269.012 198.89 268.904C198.913 268.871 198.935 268.836 198.954 268.801L199.367 268.078C199.53 267.798 199.687 267.513 199.844 267.227C199.903 267.109 199.967 266.991 200.031 266.873C200.056 266.834 200.075 266.794 200.095 266.755C200.169 266.617 200.244 266.475 200.311 266.332C200.378 266.19 200.461 266.052 200.532 265.909C200.604 265.767 200.675 265.629 200.743 265.486C200.798 265.378 200.847 265.27 200.901 265.162C200.905 265.153 200.91 265.145 200.916 265.137C200.94 265.083 200.966 265.034 200.985 264.985C200.991 264.978 200.996 264.969 201 264.961C201.054 264.853 201.103 264.739 201.157 264.631C201.226 264.489 201.29 264.341 201.356 264.198C201.401 264.099 201.45 263.999 201.494 263.894C201.557 263.751 201.627 263.608 201.685 263.461C201.754 263.311 201.818 263.166 201.882 263.012C201.901 262.976 201.918 262.938 201.932 262.899C201.966 262.83 201.991 262.762 202.021 262.693C202.099 262.511 202.178 262.324 202.252 262.142C202.341 261.935 202.424 261.724 202.501 261.517C202.58 261.325 202.653 261.128 202.727 260.932L202.756 260.863C203.902 257.845 204.771 254.729 205.353 251.554V251.549C205.681 249.735 205.916 247.906 206.056 246.069C206.061 245.966 206.071 245.87 206.076 245.77C206.164 244.525 206.204 243.279 206.204 242.023C206.204 241.467 206.194 240.917 206.179 240.366C205.836 228.846 201.729 217.757 194.485 208.794C194.328 208.597 194.17 208.4 194.008 208.203C193.846 208.007 193.679 207.815 193.516 207.623C188.126 201.31 181.327 196.352 173.668 193.148C166.01 189.945 157.705 188.586 149.425 189.18C141.145 189.775 133.12 192.307 125.998 196.573C118.876 200.838 112.856 206.717 108.423 213.736C108.182 214.12 107.941 214.508 107.71 214.897C107.479 215.285 107.248 215.683 107.021 216.082C102.569 224.001 100.237 232.936 100.251 242.022Z" fill="#F2F2F2"/>
<path d="M132.384 212.953C132.345 212.946 132.306 212.94 132.268 212.933C132.431 212.833 132.584 212.717 132.726 212.589L132.384 212.953Z" fill="white"/>
<path d="M147.1 258.809H158.44L159.145 271.829L145.736 270.787L147.1 258.809Z" fill="#FFB9B9"/>
<path d="M125.206 287.1C125.715 287.378 126.23 287.645 126.745 287.897C126.928 287.986 127.117 288.075 127.301 288.169C127.455 288.241 127.608 288.319 127.762 288.389C127.812 288.412 127.851 288.43 127.892 288.454C128.022 288.513 128.147 288.572 128.277 288.631C128.418 288.696 128.56 288.761 128.696 288.826C128.856 288.897 129.01 288.968 129.17 289.034C129.761 289.3 130.359 289.554 130.957 289.797C133.098 290.675 135.287 291.433 137.513 292.069C137.612 292.098 137.72 292.128 137.826 292.158C138.779 292.423 139.737 292.666 140.702 292.885C142.388 293.276 144.09 293.595 145.808 293.844H145.82L146.435 293.933C146.453 293.933 146.471 293.939 146.495 293.939C146.495 293.945 146.495 293.945 146.501 293.939L147.181 294.027C147.197 294.032 147.214 294.034 147.231 294.033C147.444 294.063 147.663 294.086 147.876 294.11L148.569 294.181L149.101 294.234C149.116 294.24 149.132 294.242 149.148 294.24C149.308 294.252 149.468 294.27 149.628 294.282H149.652L150.065 294.317C151.716 294.447 153.373 294.506 155.053 294.506C156.87 294.506 158.674 294.435 160.455 294.282H160.473L161.615 294.175C161.715 294.163 161.81 294.157 161.911 294.146C161.929 294.146 161.952 294.14 161.97 294.14C162 294.134 162.03 294.134 162.065 294.128C162.081 294.129 162.097 294.126 162.112 294.122C162.242 294.11 162.373 294.092 162.511 294.081L162.955 294.027C163.104 294.009 163.25 293.986 163.398 293.968C163.434 293.962 163.464 293.962 163.498 293.956C163.605 293.944 163.711 293.927 163.817 293.906L163.971 293.888C164.078 293.87 164.179 293.859 164.285 293.838H164.291C167.538 293.371 170.743 292.649 173.876 291.679C174.042 291.626 174.208 291.579 174.375 291.525C173.611 287.962 172.038 284.622 169.778 281.764C167.517 278.906 164.63 276.605 161.34 275.04C162.154 274.265 162.716 273.263 162.955 272.165C163.109 271.456 163.121 270.725 162.991 270.012C162.861 269.299 162.591 268.619 162.198 268.011C161.43 266.832 160.225 266.006 158.849 265.715L150.081 263.881C148.67 263.605 147.207 263.899 146.01 264.696C144.813 265.494 143.98 266.732 143.691 268.141C143.602 268.573 143.562 269.014 143.573 269.455C135.123 275.083 129.046 280.911 125.206 287.1Z" fill="#E71E86"/>
<path d="M149.788 262.811C159.171 262.811 166.777 255.205 166.777 245.821C166.777 236.438 159.171 228.831 149.788 228.831C140.404 228.831 132.798 236.438 132.798 245.821C132.798 255.205 140.404 262.811 149.788 262.811Z" fill="#FFB9B9"/>
<path d="M139.198 260.469C137.386 259.231 135.536 256.853 134.301 255.071C132.664 252.728 131.538 250.067 130.995 247.26C130.453 244.454 130.506 241.565 131.151 238.781C131.357 237.668 131.862 236.632 132.613 235.784C133.413 234.992 134.721 234.617 135.697 235.177C135.431 234.463 135.314 233.703 135.353 232.942C135.392 232.181 135.586 231.436 135.924 230.753C136.611 229.39 137.605 228.205 138.829 227.293C141.17 225.49 143.955 224.355 146.889 224.008C149.823 223.66 152.796 224.114 155.493 225.32C156.554 225.812 154.811 222.014 155.922 222.381C157.026 222.808 158.252 222.787 159.34 222.321C160.386 221.795 163.848 224.92 163.447 223.821C164.24 224.181 164.928 224.735 165.449 225.433C165.97 226.131 166.305 226.949 166.425 227.812C166.544 228.674 166.443 229.553 166.132 230.366C165.82 231.179 165.308 231.9 164.642 232.462C163.766 233.202 162.671 233.628 161.711 234.255C160.029 235.439 158.838 237.197 158.364 239.198C157.89 241.2 158.164 243.305 159.136 245.118C158.126 244.469 157.018 243.987 155.854 243.692C155.27 243.549 154.661 243.548 154.077 243.689C153.492 243.829 152.95 244.107 152.495 244.5C152.115 244.935 151.827 245.443 151.651 245.994C151.474 246.544 151.412 247.125 151.468 247.7C151.506 248.853 151.78 249.989 151.811 251.142C151.901 254.525 153.713 260.958 151.09 262.757C149.017 264.178 141.671 262.159 139.198 260.469Z" fill="#2F2E41"/>
<path d="M395.089 125.964C395.089 127.16 395.05 128.355 394.966 129.54C394.878 130.956 394.725 132.362 394.518 133.759C393.824 138.461 392.497 143.049 390.574 147.396L390.279 148.043L390.13 148.368C390.08 148.476 390.027 148.584 389.977 148.688C389.909 148.83 389.844 148.968 389.778 149.106C389.694 149.278 389.611 149.45 389.522 149.622C389.512 149.642 389.503 149.667 389.488 149.691C389.414 149.841 389.346 149.981 389.267 150.129C389.252 150.161 389.236 150.192 389.217 150.223C389.133 150.39 389.045 150.562 388.957 150.729C388.857 150.906 388.765 151.088 388.667 151.265C388.43 151.703 388.185 152.136 387.934 152.568C387.86 152.696 387.784 152.824 387.708 152.952C387.639 153.07 387.57 153.188 387.496 153.306C387.447 153.385 387.397 153.469 387.347 153.547C387.268 153.68 387.19 153.808 387.106 153.941C386.924 154.231 386.737 154.521 386.555 154.811H386.55C386.466 154.944 386.378 155.077 386.289 155.205V155.21C386.029 155.603 385.758 155.996 385.488 156.385C385.487 156.385 385.485 156.385 385.484 156.386C385.483 156.387 385.483 156.389 385.483 156.39C385.267 156.705 385.041 157.01 384.819 157.314V157.319C384.669 157.511 384.529 157.708 384.381 157.9C384.263 158.057 384.14 158.22 384.017 158.377C383.993 158.411 383.963 158.441 383.938 158.477V158.482C383.904 158.526 383.869 158.565 383.835 158.61C383.314 159.278 382.776 159.933 382.222 160.572L382.133 160.675C382.104 160.709 382.07 160.744 382.04 160.783C381.99 160.837 381.946 160.891 381.897 160.945C381.848 161 381.804 161.054 381.755 161.108C378.867 164.361 375.592 167.25 372.003 169.709C371.526 170.038 371.039 170.357 370.552 170.668C370.429 170.747 370.306 170.825 370.184 170.899C370.149 170.924 370.11 170.949 370.076 170.973C370.007 171.012 369.943 171.052 369.877 171.096C369.81 171.14 369.748 171.175 369.68 171.214C369.419 171.376 369.154 171.534 368.888 171.691C368.824 171.731 368.755 171.77 368.689 171.809C368.623 171.849 368.556 171.883 368.49 171.922C368.49 171.927 368.49 171.927 368.485 171.927H368.48V171.932H368.475C368.145 172.124 367.811 172.311 367.471 172.493C367.29 172.592 367.103 172.692 366.916 172.788C366.493 173.019 366.065 173.24 365.637 173.452C365.484 173.525 365.327 173.601 365.174 173.678C365.046 173.737 364.919 173.801 364.791 173.86C364.752 173.879 364.717 173.894 364.683 173.914C364.575 173.964 364.472 174.014 364.363 174.063C364.245 174.118 364.127 174.172 364.014 174.226C363.881 174.285 363.754 174.344 363.621 174.398C363.129 174.619 362.632 174.831 362.136 175.032C360.356 175.762 358.537 176.392 356.687 176.92C356.603 176.945 356.515 176.97 356.427 176.994C355.635 177.215 354.838 177.417 354.035 177.599C352.634 177.923 351.219 178.189 349.792 178.396H349.782L349.27 178.47C349.255 178.47 349.241 178.475 349.22 178.475C349.22 178.48 349.22 178.48 349.215 178.475L348.65 178.548C348.637 178.552 348.624 178.554 348.611 178.553C348.434 178.578 348.251 178.598 348.075 178.617L347.499 178.676L347.057 178.72C347.044 178.725 347.031 178.726 347.018 178.725C346.885 178.735 346.752 178.75 346.619 178.76H346.6L346.255 178.789C344.883 178.897 343.507 178.946 342.11 178.946C340.6 178.946 339.1 178.888 337.62 178.76H337.605L336.656 178.671C336.572 178.661 336.494 178.656 336.41 178.647C336.395 178.647 336.376 178.642 336.36 178.642C336.336 178.637 336.31 178.637 336.281 178.632C336.268 178.632 336.255 178.63 336.242 178.627C336.134 178.617 336.026 178.602 335.913 178.592L335.544 178.548C335.421 178.533 335.298 178.514 335.176 178.498C335.146 178.493 335.121 178.493 335.092 178.488C335.003 178.478 334.915 178.464 334.826 178.449L334.698 178.434C334.61 178.419 334.526 178.409 334.438 178.394H334.433C331.734 178.006 329.071 177.407 326.466 176.601C326.329 176.557 326.191 176.517 326.053 176.473C326.048 176.473 326.043 176.468 326.039 176.468C325.999 176.453 325.955 176.444 325.915 176.429C325.547 176.311 325.183 176.188 324.82 176.06C324.318 175.893 323.823 175.711 323.325 175.524C323.192 175.47 323.06 175.421 322.927 175.367C322.656 175.264 322.391 175.155 322.125 175.047C321.673 174.865 321.22 174.673 320.773 174.476C320.355 174.29 319.942 174.103 319.527 173.906C319.517 173.901 319.503 173.901 319.493 173.891C319.399 173.847 319.306 173.802 319.217 173.758H319.212C316.948 172.671 314.764 171.424 312.677 170.025C312.008 169.578 311.349 169.116 310.7 168.639C310.179 168.25 309.667 167.856 309.155 167.453C306.632 165.446 304.297 163.215 302.177 160.785V160.78C302.025 160.613 301.882 160.441 301.735 160.268C301.71 160.244 301.691 160.219 301.671 160.2C301.577 160.087 301.489 159.979 301.396 159.87V159.865C301.273 159.723 301.15 159.576 301.032 159.428C301.002 159.393 300.977 159.364 300.953 159.334V159.329C300.853 159.211 300.761 159.093 300.663 158.97C300.613 158.911 300.569 158.852 300.52 158.793V158.788C300.23 158.424 299.95 158.06 299.67 157.687C299.596 157.587 299.52 157.487 299.443 157.382C299.089 156.904 298.746 156.418 298.411 155.931V155.926C298.283 155.744 298.162 155.557 298.032 155.375L297.664 154.815C297.54 154.618 297.414 154.426 297.29 154.229L297.275 154.2C297.152 154.013 297.029 153.816 296.911 153.625C296.817 153.467 296.724 153.315 296.63 153.162C296.572 153.059 296.507 152.956 296.449 152.847C296.426 152.814 296.404 152.78 296.385 152.744L295.972 152.021C295.809 151.741 295.652 151.456 295.495 151.171C295.436 151.053 295.372 150.934 295.308 150.816C295.283 150.777 295.263 150.738 295.244 150.698C295.17 150.561 295.095 150.418 295.028 150.275C294.961 150.133 294.878 149.995 294.807 149.852C294.735 149.71 294.664 149.572 294.595 149.43C294.541 149.321 294.492 149.213 294.438 149.105C294.434 149.096 294.429 149.088 294.423 149.08C294.399 149.026 294.373 148.977 294.354 148.928C294.348 148.92 294.343 148.912 294.339 148.903C294.285 148.795 294.236 148.682 294.182 148.574C294.113 148.432 294.049 148.284 293.983 148.141C293.938 148.042 293.889 147.942 293.845 147.836C293.781 147.694 293.712 147.551 293.653 147.404C293.585 147.254 293.52 147.109 293.457 146.955C293.438 146.918 293.421 146.881 293.407 146.842C293.373 146.773 293.348 146.705 293.318 146.635C293.239 146.454 293.161 146.267 293.087 146.084C292.998 145.878 292.915 145.666 292.838 145.46C292.759 145.268 292.686 145.071 292.612 144.874L292.582 144.806C291.437 141.788 290.568 138.672 289.986 135.497V135.492C289.658 133.678 289.423 131.849 289.283 130.012C289.278 129.909 289.268 129.813 289.263 129.713C289.175 128.468 289.135 127.222 289.135 125.966C289.135 125.41 289.145 124.859 289.16 124.308C289.503 112.789 293.61 101.7 300.854 92.7371C301.011 92.5404 301.169 92.3436 301.331 92.1468C301.493 91.95 301.66 91.7582 301.823 91.5665C307.213 85.2532 314.012 80.295 321.671 77.0915C329.329 73.888 337.634 72.5289 345.914 73.1237C354.194 73.7186 362.219 76.2507 369.341 80.516C376.463 84.7813 382.483 90.6604 386.916 97.6794C387.157 98.0629 387.398 98.4515 387.629 98.8401C387.861 99.2286 388.092 99.6267 388.318 100.025C392.772 107.944 395.106 116.88 395.093 125.966L395.089 125.964Z" fill="#F2F2F2"/>
<path d="M362.957 96.8954C362.996 96.8884 363.034 96.883 363.073 96.876C362.91 96.7752 362.757 96.6598 362.615 96.5312L362.957 96.8954Z" fill="white"/>
<path d="M333.274 147.53L346.706 146.055L349.903 157.822L337.182 160.808L333.274 147.53Z" fill="#ED9DA0"/>
<path d="M336.626 151.114C345.414 151.114 352.539 143.831 352.539 134.846C352.539 125.862 345.414 118.579 336.626 118.579C327.838 118.579 320.714 125.862 320.714 134.846C320.714 143.831 327.838 151.114 336.626 151.114Z" fill="#ED9DA0"/>
<path d="M370.583 172.232C370.123 172.484 369.656 172.725 369.189 172.956C369.023 173.036 368.851 173.116 368.685 173.202C368.545 173.266 368.406 173.336 368.267 173.401C368.224 173.423 368.187 173.439 368.149 173.46C368.031 173.514 367.918 173.567 367.8 173.621C367.672 173.68 367.543 173.739 367.42 173.798C367.275 173.862 367.136 173.926 366.991 173.985C366.455 174.226 365.913 174.457 365.372 174.677C363.432 175.472 361.45 176.159 359.434 176.735C359.343 176.761 359.246 176.788 359.15 176.815C358.286 177.056 357.418 177.276 356.545 177.474C355.017 177.827 353.476 178.117 351.92 178.342H351.909L351.352 178.422C351.336 178.422 351.319 178.428 351.298 178.428C351.298 178.433 351.298 178.433 351.293 178.428L350.676 178.508C350.663 178.512 350.648 178.514 350.634 178.513C350.441 178.54 350.243 178.563 350.049 178.583L349.422 178.647L348.94 178.697C348.926 178.702 348.911 178.704 348.897 178.703C348.752 178.713 348.608 178.73 348.463 178.74H348.442L348.067 178.773C346.572 178.891 345.071 178.944 343.548 178.944C341.904 178.944 340.269 178.88 338.655 178.74H338.642L337.608 178.643C337.517 178.633 337.431 178.628 337.34 178.617C337.324 178.617 337.303 178.611 337.286 178.611C337.259 178.606 337.232 178.606 337.2 178.6C337.186 178.601 337.172 178.599 337.158 178.595C337.04 178.584 336.922 178.568 336.798 178.557L336.396 178.507C336.262 178.492 336.128 178.47 335.994 178.454C335.962 178.448 335.936 178.448 335.903 178.443C335.807 178.432 335.711 178.416 335.614 178.4L335.474 178.384C335.378 178.368 335.287 178.358 335.19 178.342H335.185C332.244 177.918 329.341 177.264 326.503 176.385C326.353 176.336 326.204 176.294 326.054 176.246C326.746 173.019 328.171 169.994 330.218 167.404C332.265 164.815 334.88 162.732 337.861 161.314C337.123 160.612 336.614 159.704 336.397 158.709C336.258 158.068 336.247 157.405 336.365 156.759C336.483 156.114 336.727 155.498 337.083 154.947C337.779 153.879 338.87 153.131 340.117 152.867L348.057 151.206C349.336 150.957 350.661 151.222 351.745 151.945C352.829 152.667 353.584 153.788 353.846 155.065C353.927 155.456 353.963 155.855 353.953 156.254C361.601 161.347 367.105 166.626 370.583 172.232Z" fill="#E71E86"/>
<path d="M379.206 127.791C376.501 124.637 375.215 120.452 373.053 116.87C370.89 113.288 367.128 110.082 363.153 110.916C360.413 111.491 358.295 113.909 357.225 116.604C356.155 119.3 355.952 122.273 355.764 125.186C355.83 119.2 351.887 113.398 346.455 111.486C341.023 109.575 334.523 111.707 331.112 116.518C329.623 115.137 327.679 114.351 325.648 114.309C323.618 114.266 321.642 114.97 320.096 116.287C317.043 119.015 316.368 124.207 318.613 127.689C320.858 131.172 325.72 132.467 329.288 130.536L330.55 131.697C329.84 134.18 331.217 137.114 333.531 138.049C335.408 138.807 338.058 138.681 338.762 140.65C339.252 142.027 338.335 143.496 337.359 144.554C336.384 145.611 335.225 146.703 335.108 148.167C334.931 150.375 337.213 151.922 339.287 152.388C344.289 153.511 349.839 151.195 352.722 146.78C352.777 146.695 352.838 146.61 352.903 146.525C354.521 144.456 355.699 142.08 356.368 139.54C357.036 137.001 357.179 134.352 356.789 131.755C356.626 130.735 356.789 129.976 357.494 129.735C360.532 128.689 369.051 130.881 371.63 132.863C374.209 134.846 376.273 137.466 378.754 139.575C381.234 141.684 384.401 143.311 387.554 142.736C390.079 142.276 392.228 140.445 393.673 138.231C395.117 136.018 395.949 133.443 396.694 130.881C391.107 134.106 383.464 132.756 379.206 127.791Z" fill="#2F2E41"/>
<path d="M52.0589 93.0156C52.0589 94.2112 52.0982 95.4067 52.1819 96.5909C52.2706 98.0071 52.423 99.4134 52.6303 100.81C53.3244 105.513 54.651 110.1 56.5741 114.447L56.869 115.094L57.0184 115.419C57.0683 115.527 57.1216 115.635 57.1709 115.739C57.2396 115.882 57.3039 116.02 57.3701 116.157C57.4538 116.329 57.5375 116.501 57.6257 116.674C57.6356 116.693 57.6451 116.718 57.6601 116.742C57.7338 116.892 57.8025 117.032 57.8812 117.18C57.8959 117.212 57.9125 117.244 57.931 117.274C58.0147 117.441 58.1034 117.613 58.1916 117.781C58.2912 117.957 58.3834 118.14 58.4815 118.317C58.7176 118.754 58.9632 119.187 59.2143 119.62C59.288 119.748 59.3637 119.875 59.4404 120.003C59.5092 120.121 59.5779 120.239 59.6517 120.358C59.7015 120.436 59.7513 120.52 59.8011 120.599C59.8798 120.732 59.9585 120.859 60.0422 120.992C60.224 121.282 60.4108 121.573 60.5931 121.862H60.5981C60.6818 121.995 60.77 122.128 60.8587 122.256V122.261C61.1192 122.655 61.3897 123.048 61.6602 123.436C61.6613 123.436 61.6625 123.436 61.6637 123.436C61.6641 123.437 61.6641 123.438 61.6637 123.44C61.8799 123.754 62.106 124.059 62.3277 124.364V124.369C62.4772 124.561 62.6176 124.758 62.7656 124.95C62.8836 125.107 63.0067 125.269 63.1292 125.427C63.1536 125.461 63.1835 125.491 63.2079 125.526V125.531C63.2423 125.576 63.2767 125.615 63.3111 125.659C63.8324 126.328 64.3701 126.982 64.924 127.622L65.0127 127.725C65.0421 127.759 65.0765 127.794 65.1064 127.833C65.1562 127.887 65.2 127.941 65.2488 127.995C65.2977 128.05 65.3425 128.103 65.3913 128.158C68.2795 131.411 71.5543 134.3 75.143 136.759C75.6203 137.088 76.107 137.406 76.5937 137.718C76.7167 137.797 76.8397 137.875 76.9623 137.949C76.9967 137.973 77.036 137.999 77.0704 138.023C77.1391 138.062 77.2034 138.101 77.2696 138.146C77.3359 138.19 77.3977 138.224 77.4664 138.264C77.7269 138.426 77.9924 138.584 78.258 138.741C78.3217 138.78 78.391 138.82 78.4572 138.859C78.5235 138.898 78.5902 138.933 78.6565 138.972C78.6565 138.977 78.6565 138.977 78.6615 138.977H78.6664V138.982H78.6714C79.0009 139.174 79.3353 139.361 79.6747 139.543C79.8565 139.642 80.0433 139.742 80.2306 139.837C80.6536 140.069 81.0815 140.29 81.5094 140.502C81.6618 140.575 81.8192 140.651 81.9717 140.728C82.0997 140.786 82.2272 140.851 82.3552 140.91C82.3946 140.929 82.429 140.944 82.4633 140.964C82.5714 141.014 82.6745 141.063 82.7831 141.113C82.9012 141.168 83.0193 141.221 83.1318 141.276C83.2649 141.334 83.3924 141.394 83.5254 141.448C84.017 141.669 84.5137 141.881 85.0104 142.082C86.7903 142.812 88.6093 143.442 90.4591 143.971C90.5428 143.995 90.631 144.021 90.7196 144.044C91.5113 144.266 92.3084 144.467 93.1107 144.649C94.5122 144.974 95.9268 145.239 97.3545 145.446H97.3644L97.876 145.52C97.891 145.52 97.9054 145.525 97.9258 145.525C97.9258 145.53 97.9258 145.53 97.9308 145.525L98.4962 145.599C98.509 145.602 98.5223 145.604 98.5356 145.604C98.7124 145.628 98.8947 145.648 99.0716 145.667L99.6469 145.726L100.089 145.771C100.102 145.775 100.115 145.777 100.129 145.776C100.262 145.785 100.394 145.8 100.527 145.81H100.547L100.891 145.839C102.263 145.947 103.64 145.997 105.036 145.997C106.546 145.997 108.046 145.938 109.526 145.81H109.541L110.49 145.721C110.574 145.711 110.653 145.706 110.736 145.697C110.751 145.697 110.771 145.692 110.786 145.692C110.81 145.687 110.836 145.687 110.865 145.682C110.878 145.682 110.891 145.681 110.904 145.677C111.012 145.667 111.12 145.652 111.233 145.643L111.602 145.598C111.725 145.583 111.848 145.564 111.971 145.548C112 145.543 112.025 145.543 112.054 145.538C112.143 145.528 112.231 145.514 112.32 145.499L112.448 145.484C112.536 145.469 112.62 145.46 112.708 145.445H112.713C115.412 145.057 118.075 144.457 120.68 143.651C120.817 143.607 120.955 143.568 121.093 143.523C121.098 143.523 121.103 143.518 121.108 143.518C121.147 143.503 121.191 143.494 121.231 143.479C121.599 143.361 121.963 143.238 122.327 143.11C122.828 142.943 123.323 142.762 123.821 142.574C123.954 142.52 124.087 142.471 124.22 142.417C124.49 142.314 124.756 142.206 125.021 142.097C125.473 141.915 125.926 141.724 126.374 141.527C126.791 141.34 127.204 141.153 127.619 140.956C127.629 140.951 127.643 140.951 127.653 140.941C127.747 140.897 127.84 140.853 127.929 140.808H127.934C130.198 139.721 132.383 138.474 134.469 137.076C135.138 136.628 135.797 136.166 136.446 135.689C136.967 135.3 137.479 134.907 137.99 134.504C140.513 132.497 142.849 130.265 144.968 127.835V127.83C145.121 127.663 145.263 127.491 145.411 127.319C145.435 127.294 145.455 127.269 145.475 127.25C145.568 127.137 145.656 127.029 145.75 126.921V126.916C145.873 126.773 145.996 126.626 146.114 126.478C146.143 126.443 146.168 126.414 146.192 126.384V126.379C146.292 126.261 146.384 126.143 146.482 126.02C146.532 125.961 146.576 125.902 146.625 125.843V125.838C146.915 125.475 147.195 125.11 147.476 124.737C147.549 124.637 147.625 124.538 147.702 124.432C148.056 123.955 148.399 123.468 148.734 122.981V122.976C148.862 122.794 148.983 122.608 149.113 122.425L149.482 121.865C149.605 121.668 149.731 121.476 149.855 121.28L149.87 121.25C149.993 121.063 150.116 120.867 150.234 120.675C150.327 120.517 150.421 120.365 150.514 120.213C150.573 120.109 150.637 120.006 150.696 119.898C150.719 119.864 150.74 119.83 150.76 119.795L151.173 119.072C151.335 118.791 151.493 118.506 151.65 118.221C151.709 118.103 151.773 117.985 151.837 117.867C151.861 117.827 151.881 117.788 151.901 117.749C151.974 117.611 152.05 117.468 152.117 117.326C152.184 117.183 152.266 117.045 152.338 116.903C152.41 116.76 152.48 116.622 152.549 116.48C152.603 116.372 152.652 116.264 152.707 116.155C152.71 116.146 152.715 116.138 152.722 116.131C152.746 116.076 152.771 116.028 152.79 115.978C152.796 115.971 152.801 115.963 152.805 115.954C152.86 115.846 152.908 115.733 152.963 115.624C153.031 115.482 153.096 115.335 153.162 115.192C153.206 115.092 153.256 114.992 153.299 114.887C153.363 114.744 153.432 114.601 153.491 114.454C153.56 114.304 153.624 114.159 153.688 114.005C153.707 113.969 153.723 113.931 153.738 113.892C153.772 113.824 153.797 113.755 153.826 113.686C153.905 113.504 153.984 113.317 154.058 113.135C154.146 112.928 154.23 112.717 154.307 112.51C154.385 112.318 154.459 112.121 154.533 111.925L154.562 111.856C155.708 108.838 156.577 105.722 157.159 102.547V102.542C157.487 100.729 157.721 98.8995 157.862 97.0621C157.867 96.959 157.877 96.8629 157.882 96.7632C157.971 95.5178 158.01 94.2724 158.01 93.0161C158.01 92.4601 158 91.9097 157.985 91.3587C157.642 79.8398 153.535 68.7505 146.291 59.7874C146.134 59.5906 145.977 59.3939 145.814 59.1971C145.652 59.0003 145.485 58.8085 145.323 58.6167C139.932 52.3035 133.133 47.3453 125.474 44.1418C117.816 40.9383 109.512 39.5792 101.231 40.174C92.9512 40.7689 84.9266 43.301 77.8045 47.5663C70.6824 51.8316 64.6621 57.7107 60.229 64.7296C59.9879 65.1132 59.7473 65.5018 59.5162 65.8903C59.285 66.2789 59.0539 66.6769 58.8277 67.0755C54.3733 74.9946 52.0397 83.9301 52.0529 93.0161L52.0589 93.0156Z" fill="#F2F2F2"/>
<path d="M84.1919 63.9467C84.153 63.9397 84.1142 63.9342 84.0758 63.9273C84.2385 63.8265 84.3918 63.7111 84.5336 63.5825L84.1919 63.9467Z" fill="white"/>
<path d="M102.247 107.206H114.601L114.075 123.207L100.092 122.112L102.247 107.206Z" fill="#9E616A"/>
<path d="M80.2366 139.401C80.7188 139.667 81.206 139.922 81.6937 140.165C81.8675 140.25 82.0468 140.335 82.2207 140.426C82.3667 140.494 82.5121 140.567 82.6581 140.635C82.7029 140.657 82.7423 140.675 82.7811 140.697C82.9047 140.754 83.0222 140.81 83.1453 140.867C83.2798 140.929 83.4143 140.992 83.5438 141.054C83.6932 141.122 83.8427 141.19 83.9921 141.253C84.5525 141.508 85.1189 141.751 85.6858 141.983C87.7137 142.822 89.7869 143.548 91.8957 144.156C91.9909 144.184 92.092 144.213 92.1946 144.241C93.0969 144.495 94.0049 144.728 94.9185 144.938C96.5159 145.312 98.1282 145.617 99.7555 145.855H99.7665L100.349 145.939C100.366 145.939 100.383 145.945 100.406 145.945C100.406 145.95 100.406 145.95 100.411 145.945L101.056 146.03C101.07 146.034 101.085 146.036 101.101 146.035C101.302 146.063 101.509 146.085 101.711 146.109L102.367 146.177L102.871 146.226C102.886 146.231 102.901 146.233 102.916 146.232C103.066 146.243 103.219 146.26 103.37 146.272H103.392L103.785 146.306C105.349 146.43 106.918 146.486 108.51 146.486C110.231 146.486 111.94 146.419 113.627 146.271H113.644L114.725 146.172C114.82 146.16 114.91 146.155 115.006 146.143C115.023 146.143 115.045 146.138 115.062 146.138C115.09 146.132 115.118 146.132 115.152 146.126C115.167 146.127 115.182 146.125 115.197 146.121C115.32 146.109 115.446 146.092 115.572 146.081L115.993 146.032C116.133 146.015 116.273 145.992 116.413 145.975C116.447 145.969 116.475 145.969 116.508 145.963C116.608 145.952 116.707 145.935 116.811 145.918L116.957 145.901C117.057 145.884 117.153 145.873 117.256 145.856H117.261C120.337 145.407 123.372 144.715 126.338 143.786C126.495 143.737 126.651 143.69 126.808 143.637C126.093 140.24 124.608 137.052 122.467 134.319C120.327 131.586 117.588 129.38 114.461 127.871C115.233 127.127 115.766 126.17 115.991 125.121C116.285 123.754 116.027 122.326 115.274 121.149C114.916 120.592 114.451 120.111 113.907 119.734C113.362 119.358 112.749 119.092 112.102 118.953L103.795 117.199C102.453 116.94 101.062 117.223 99.9279 117.987C98.7935 118.75 98.0077 119.932 97.7425 121.274C97.6577 121.687 97.6202 122.108 97.6304 122.53C89.6302 127.906 83.874 133.482 80.2366 139.401Z" fill="#E71E86"/>
<path d="M105.937 116.305C115.734 116.305 123.676 108.362 123.676 98.5651C123.676 88.7679 115.734 80.8257 105.937 80.8257C96.14 80.8257 88.198 88.7679 88.198 98.5651C88.198 108.362 96.14 116.305 105.937 116.305Z" fill="#9E616A"/>
<path d="M103.417 115.357C98.9759 116.556 94.0796 114.962 90.6145 111.936C87.1494 108.911 84.9809 104.625 83.7316 100.198C82.8165 96.9551 82.3831 93.3559 83.8267 90.3117C85.2704 87.2675 89.1569 85.214 92.1538 86.7514C90.3046 84.5968 91.2282 81.033 93.3882 79.1903C95.5481 77.3476 98.5136 76.8186 101.338 76.5297C105.437 76.1102 109.672 76.0634 113.573 77.3915C117.474 78.7195 121.017 81.6228 122.24 85.5613C123.487 86.1418 124.891 86.2924 126.233 85.9896C127.575 85.6867 128.778 84.9474 129.654 83.8874C129.881 85.1049 129.699 86.363 129.138 87.4669C128.577 88.5709 127.668 89.459 126.551 89.9939L132.529 88.056C133.557 90.232 131.756 92.9245 129.453 93.6215C127.149 94.3184 124.663 93.5567 122.478 92.5499C120.294 91.5432 118.175 90.2709 115.801 89.8783C113.427 89.4858 110.638 90.2484 109.54 92.3895C108.965 93.5109 108.935 94.8245 108.601 96.0395C108.267 97.2545 107.421 98.5149 106.165 98.6145C105.371 98.6773 104.593 98.2543 103.802 98.341C103.316 98.4369 102.869 98.6722 102.515 99.0183C102.161 99.3643 101.916 99.806 101.809 100.289C101.612 101.259 101.61 102.258 101.802 103.228L103.321 114.836L103.417 115.357Z" fill="#2F2E41"/>
<path d="M5.23504 159.16C5.93112 159.041 6.64495 159.081 7.3239 159.275C8.00285 159.469 8.6296 159.812 9.15795 160.281L9.18684 160.307L9.21374 160.283C9.7178 159.84 10.3105 159.51 10.9524 159.314C11.5943 159.119 12.2705 159.062 12.9359 159.149L13.1292 159.177C13.9678 159.322 14.7517 159.691 15.3978 160.244C16.0439 160.798 16.5282 161.517 16.7993 162.323C17.0705 163.13 17.1184 163.995 16.9381 164.827C16.7577 165.659 16.3558 166.426 15.7748 167.048L15.6334 167.193L15.5955 167.226L9.73431 173.031C9.59905 173.165 9.4199 173.245 9.23003 173.257C9.04016 173.269 8.85244 173.212 8.70165 173.096L8.62792 173.031L2.73733 167.194C2.11296 166.586 1.6689 165.818 1.45434 164.974C1.23979 164.13 1.2631 163.243 1.52171 162.411C1.78031 161.579 2.26411 160.835 2.91952 160.261C3.57493 159.687 4.37636 159.306 5.23504 159.16Z" fill="#E71E86"/>
<path d="M272.6 108.816C271.998 108.816 271.418 108.586 270.98 108.172C270.542 107.759 270.278 107.193 270.244 106.592L270.238 106.452V99.009L277.669 103.964L277.759 104.013C277.867 104.067 277.986 104.096 278.106 104.096C278.227 104.096 278.345 104.067 278.453 104.013L278.543 103.964L285.974 99.009V106.452C285.975 107.055 285.745 107.634 285.331 108.072C284.918 108.51 284.353 108.773 283.751 108.808L283.612 108.816H272.6ZM270.588 97.3506C270.785 97.0297 271.056 96.7607 271.379 96.5664C271.701 96.372 272.066 96.2579 272.442 96.2336L272.6 96.2268H283.611C284.014 96.2268 284.411 96.3302 284.763 96.527C285.115 96.7237 285.411 97.0071 285.622 97.3506L278.104 102.36L270.588 97.3506Z" fill="#E71E86"/>
<path d="M83.9129 190.752C84.7476 190.752 85.5482 191.084 86.1384 191.674C86.7286 192.264 87.0602 193.065 87.0602 193.899V200.194C87.0602 201.029 86.7286 201.829 86.1384 202.42C85.5482 203.01 84.7476 203.341 83.9129 203.341H80.1957L76.4492 205.59C76.3363 205.657 76.2083 205.696 76.0767 205.701C75.9452 205.707 75.8144 205.679 75.6963 205.621C75.5782 205.563 75.4767 205.476 75.4009 205.368C75.3251 205.261 75.2775 205.136 75.2626 205.005L75.2581 204.915V203.341H74.471C73.6637 203.341 72.8873 203.031 72.3023 202.475C71.7172 201.919 71.3683 201.159 71.3277 200.352L71.3237 200.194V193.899C71.3237 193.065 71.6553 192.264 72.2456 191.674C72.8358 191.084 73.6363 190.752 74.471 190.752H83.9129ZM80.7656 197.833H76.0447C75.836 197.833 75.6359 197.916 75.4883 198.064C75.3407 198.211 75.2579 198.411 75.2579 198.62C75.2579 198.829 75.3407 199.029 75.4883 199.176C75.6359 199.324 75.836 199.407 76.0447 199.407H80.7656C80.9743 199.407 81.1744 199.324 81.322 199.176C81.4695 199.029 81.5524 198.829 81.5524 198.62C81.5524 198.411 81.4695 198.211 81.322 198.064C81.1744 197.916 80.9743 197.833 80.7656 197.833ZM82.3393 194.687H76.0447C75.836 194.687 75.6359 194.77 75.4883 194.918C75.3407 195.065 75.2579 195.266 75.2579 195.474C75.2579 195.683 75.3407 195.883 75.4883 196.031C75.6359 196.178 75.836 196.261 76.0447 196.261H82.3393C82.5479 196.261 82.7481 196.178 82.8956 196.031C83.0432 195.883 83.1261 195.683 83.1261 195.474C83.1261 195.266 83.0432 195.065 82.8956 194.918C82.7481 194.77 82.5479 194.687 82.3393 194.687Z" fill="#E71E86"/>
<path d="M76.0183 166.176C78.611 166.176 80.7128 164.074 80.7128 161.482C80.7128 158.889 78.611 156.787 76.0183 156.787C73.4255 156.787 71.3237 158.889 71.3237 161.482C71.3237 164.074 73.4255 166.176 76.0183 166.176Z" fill="#E6E6E6"/>
</g>
<path d="M398 295V294H0V295V296H398V295Z" fill="#E0E0E0" mask="url(#path-1-inside-1_70_1161)"/>
<defs>
<clipPath id="clip0_70_1161">
<path d="M0 0H398V295H0V0Z" fill="white"/>
</clipPath>
</defs>
</svg>
