<svg width="318" height="246" viewBox="0 0 318 246" fill="none" xmlns="http://www.w3.org/2000/svg">
<g clip-path="url(#clip0_67_771)">
<path d="M41.8558 108.251C30.0558 103.296 20.5965 94.0192 15.4144 82.3199C12.5151 75.6925 11.0995 68.5056 10.2936 61.3171C9.50286 54.2646 9.34141 46.8252 12.3774 40.4102C14.0397 36.8979 16.5838 33.876 19.7618 31.639C22.9398 29.402 26.6432 28.0262 30.5113 27.6456C34.3793 27.2651 38.28 27.8928 41.8332 29.4675C45.3864 31.0423 48.4709 33.5104 50.7862 36.6314C52.779 39.3177 54.1801 42.541 54.2158 45.8852C54.2908 52.9 48.6488 58.5295 46.1736 65.0938C43.6158 71.8773 44.5377 79.3933 44.9725 86.6297C45.4074 93.8661 45.1318 101.711 40.7397 107.48" fill="#F2F2F2"/>
<path d="M253.488 196.951C265.949 194.033 276.824 186.463 283.885 175.792C287.849 169.741 290.444 162.891 292.438 155.937C294.394 149.115 295.795 141.807 293.871 134.976C292.818 131.235 290.814 127.832 288.054 125.096C285.294 122.361 281.872 120.386 278.121 119.366C274.371 118.346 270.42 118.315 266.654 119.275C262.888 120.235 259.435 122.154 256.631 124.846C254.218 127.162 252.299 130.107 251.706 133.398C250.461 140.302 255.085 146.793 256.431 153.678C257.821 160.793 255.658 168.05 254.022 175.113C252.386 182.175 251.349 189.957 254.717 196.377" fill="#F2F2F2"/>
<path d="M158.451 185.687C140.689 185.743 123.408 179.92 109.303 169.126C95.4938 158.578 85.4048 143.906 80.5001 127.238L81.2025 127.034C91.1214 161.138 122.887 184.956 158.451 184.956C169.085 184.976 179.616 182.875 189.428 178.777L189.71 179.451C179.809 183.587 169.182 185.707 158.451 185.687Z" fill="#E6E6E6"/>
<path d="M235.236 80.5054C224.685 46.7824 193.828 24.1246 158.452 24.1246C147.969 24.1056 137.584 26.1469 127.889 30.1322L127.611 29.4562C140.58 24.1462 154.703 22.2784 168.607 24.0343C182.511 25.7901 195.725 31.1099 206.967 39.4772C220.647 49.7236 230.777 63.9942 235.934 80.2873L235.236 80.5054Z" fill="#E6E6E6"/>
<path d="M257.171 211.273C223.906 211.273 196.843 184.218 196.843 150.962C196.843 117.706 223.906 90.6501 257.171 90.6501C290.437 90.6501 317.5 117.706 317.5 150.962C317.5 184.218 290.437 211.273 257.171 211.273ZM257.171 91.3812C224.309 91.3812 197.574 118.109 197.574 150.962C197.574 183.815 224.309 210.542 257.171 210.542C290.033 210.542 316.769 183.815 316.769 150.962C316.769 118.109 290.033 91.3812 257.171 91.3812Z" fill="#3F3D56"/>
<path d="M60.8287 120.623C27.5633 120.623 0.5 93.5676 0.5 60.3116C0.5 27.0556 27.5633 0 60.8287 0C94.0941 0 121.157 27.0556 121.157 60.3116C121.157 93.5676 94.0941 120.623 60.8287 120.623ZM60.8287 0.73105C27.9666 0.73105 1.23126 27.4588 1.23126 60.3116C1.23126 93.1644 27.9666 119.892 60.8287 119.892C93.6908 119.892 120.426 93.1644 120.426 60.3116C120.426 27.4588 93.6908 0.73105 60.8287 0.73105Z" fill="#3F3D56"/>
<path d="M56.1381 60.6507L50.8107 70.9945L56.0709 74.0091C56.0709 74.0091 59.6795 62.3903 59.7857 61.9494C60.3298 61.727 60.7936 61.3448 61.1157 60.8533C61.4379 60.3617 61.6031 59.784 61.5896 59.1965C61.5761 58.609 61.3846 58.0394 61.0403 57.5631C60.6959 57.0868 60.2151 56.7263 59.6614 56.5291C59.1076 56.332 58.5071 56.3076 57.9391 56.4591C57.3712 56.6106 56.8626 56.9309 56.4807 57.3776C56.0988 57.8243 55.8616 58.3765 55.8004 58.9609C55.7392 59.5454 55.857 60.1346 56.1381 60.6507Z" fill="#A0616A"/>
<path d="M28.798 62.0577C31.1744 70.8597 39.7161 76.4501 46.809 83.1524C47.6825 83.4588 48.6102 83.5796 49.533 83.5072C50.4558 83.4347 51.3533 83.1705 52.1681 82.7316C52.983 82.2926 53.6973 81.6884 54.2653 80.9578C54.8333 80.2271 55.2425 79.386 55.4668 78.4882L57.8575 69.1351L51.7813 68.9727L49.2667 71.7048L41.1304 65.9087L28.798 62.0577Z" fill="#3F3D56"/>
<path d="M248.202 160.333C249.234 160.401 250.199 160.868 250.891 161.635C251.583 162.403 251.949 163.411 251.909 164.443C251.898 164.653 251.869 164.862 251.824 165.067L263.539 172.445L257.062 175.309L246.93 167.863C246.094 167.608 245.366 167.083 244.86 166.371C244.354 165.658 244.098 164.798 244.132 163.925C244.156 163.428 244.278 162.941 244.49 162.492C244.702 162.042 245.001 161.639 245.37 161.304C245.738 160.97 246.169 160.712 246.637 160.544C247.105 160.376 247.602 160.302 248.099 160.327C248.133 160.328 248.168 160.33 248.202 160.333Z" fill="black"/>
<path d="M259.5 169.092L256.596 175.081L268.076 182.466C268.893 182.996 269.832 183.309 270.804 183.374C271.775 183.439 272.748 183.254 273.628 182.838C274.698 182.326 275.573 181.48 276.12 180.427C276.667 179.375 276.858 178.173 276.663 177.003L272.937 155.743C272.687 154.255 271.877 152.92 270.672 152.011C269.467 151.103 267.96 150.69 266.46 150.859C264.985 151.02 263.634 151.761 262.705 152.918C261.776 154.074 261.345 155.553 261.506 157.028C261.512 157.085 261.519 157.143 261.528 157.2C261.556 157.405 261.595 157.607 261.645 157.807L265.712 172.927L259.5 169.092Z" fill="#E71E86"/>
<path d="M249.066 171.52L244.743 160.368C244.595 159.986 244.605 159.562 244.77 159.187C244.936 158.813 245.243 158.519 245.624 158.371L248.055 157.429C248.437 157.282 248.862 157.292 249.236 157.457C249.611 157.622 249.904 157.929 250.053 158.31L254.376 169.462C254.523 169.844 254.513 170.269 254.348 170.643C254.183 171.017 253.876 171.311 253.494 171.459L251.063 172.401C250.681 172.549 250.257 172.539 249.882 172.373C249.508 172.208 249.214 171.901 249.066 171.52Z" fill="#3F3D56"/>
<path d="M246.129 158.83C245.924 158.909 245.758 159.068 245.669 159.269C245.58 159.471 245.575 159.7 245.654 159.906L249.977 171.057C250.057 171.263 250.215 171.428 250.417 171.517C250.619 171.606 250.848 171.612 251.054 171.532L253.485 170.59C253.69 170.511 253.856 170.352 253.945 170.151C254.034 169.949 254.039 169.72 253.96 169.514L249.637 158.363C249.557 158.157 249.399 157.992 249.197 157.903C248.995 157.814 248.766 157.808 248.56 157.888L246.129 158.83Z" fill="#E71E86"/>
<path d="M258.684 194.789H275.102V178.376H258.684V194.789Z" fill="#FFB8B8"/>
<path d="M219.749 226.714L213.479 224.605L209.987 241.668L214.236 243.097L219.749 226.714Z" fill="black"/>
<path d="M230.869 223.468L224.431 224.99L230.485 241.32L234.847 240.289L230.869 223.468Z" fill="black"/>
<path d="M274.513 199.077C277.803 221.009 233.982 208.043 233.982 208.043L220.243 226.991L212.199 225.529C212.199 225.529 215.818 214.154 222.282 198.904C225.153 192.132 257.748 193.787 257.748 193.787L258.425 188.477L277.072 188.112L274.513 199.077Z" fill="#2F2E41"/>
<path d="M232.599 203.337L220.665 203.612C222.578 220.063 224.265 226.625 224.265 226.625L231.212 224.432L232.599 203.337Z" fill="#2F2E41"/>
<path d="M265.134 151.704L268.438 147.458L273.152 147.254L273.623 151.247L275.958 152.324C278.291 161.182 278.651 170.444 277.014 179.456C276.7 179.751 276.472 180.123 276.351 180.536C276.23 180.948 276.222 181.386 276.326 181.803L276.478 182.406L276.464 182.428C275.967 183.212 275.798 184.16 275.994 185.067L277.11 187.049C277.51 187.762 277.75 188.553 277.814 189.368C277.877 190.182 277.762 191.001 277.477 191.767C277.192 192.533 276.743 193.228 276.162 193.803C275.582 194.378 274.882 194.819 274.113 195.097C267.257 197.582 260.829 198.507 256.074 191.535L254.579 167.238L265.134 151.704Z" fill="#E71E86"/>
<path d="M268.595 148.586C273.409 148.586 277.311 144.685 277.311 139.872C277.311 135.06 273.409 131.159 268.595 131.159C263.782 131.159 259.88 135.06 259.88 139.872C259.88 144.685 263.782 148.586 268.595 148.586Z" fill="#FFB8B8"/>
<path d="M272.971 129.369C276.661 129.439 279.588 132.862 279.508 137.012C282.239 139.861 281.336 143.347 279.054 147.074C274.88 147.559 273.906 147.761 270.245 149.253L269.763 147L268.67 149.934C267.739 150.363 266.816 150.833 265.9 151.346C265.241 148.327 265.405 145.392 267.174 142.835C268.747 140.564 264.92 137.868 262.184 138.249L262.224 136.163L261.537 138.237C260.47 139.02 259.29 138.736 258.08 138.17C256.118 127.976 271.309 125.188 272.971 129.369Z" fill="#2F2E41"/>
<path d="M216.167 245.983L213.373 245.618L213.219 242.916L211.598 245.386L204.188 244.418C203.833 244.372 203.502 244.213 203.244 243.966C202.985 243.718 202.812 243.394 202.751 243.041C202.69 242.688 202.743 242.325 202.902 242.005C203.062 241.684 203.32 241.423 203.638 241.26L210.089 237.947L210.437 235.281L216.612 236.466L216.167 245.983Z" fill="#2F2E41"/>
<path d="M236.451 244.445L233.656 244.804L232.818 242.231L231.88 245.033L224.469 245.986C224.114 246.032 223.753 245.963 223.44 245.789C223.127 245.615 222.877 245.346 222.728 245.021C222.579 244.695 222.537 244.331 222.61 243.98C222.682 243.629 222.865 243.311 223.132 243.072L228.524 238.224L228.181 235.558L234.454 235.129L236.451 244.445Z" fill="#2F2E41"/>
<path d="M249.253 162.372C250.285 162.439 251.25 162.906 251.942 163.674C252.634 164.442 253 165.449 252.96 166.482C252.949 166.692 252.92 166.9 252.875 167.105L264.59 174.484L258.113 177.347L247.981 169.902C247.145 169.646 246.417 169.122 245.911 168.409C245.405 167.697 245.149 166.837 245.183 165.964C245.207 165.467 245.329 164.98 245.541 164.53C245.753 164.081 246.052 163.677 246.421 163.343C246.789 163.009 247.22 162.751 247.688 162.583C248.156 162.415 248.653 162.341 249.15 162.365C249.184 162.367 249.219 162.369 249.253 162.372Z" fill="black"/>
<path d="M260.551 171.13L257.647 177.119L269.127 184.505C269.944 185.035 270.883 185.347 271.855 185.412C272.826 185.477 273.799 185.293 274.679 184.876C275.749 184.364 276.624 183.518 277.171 182.466C277.718 181.413 277.909 180.212 277.714 179.042L273.988 157.781C273.738 156.293 272.928 154.958 271.723 154.05C270.518 153.141 269.011 152.729 267.511 152.897C266.781 152.977 266.073 153.2 265.429 153.553C264.784 153.907 264.216 154.383 263.756 154.956C263.296 155.529 262.953 156.187 262.748 156.892C262.542 157.597 262.477 158.336 262.557 159.066C262.563 159.124 262.571 159.181 262.579 159.239C262.607 159.443 262.646 159.646 262.696 159.846L266.763 174.966L260.551 171.13Z" fill="#E71E86"/>
<path d="M40.8708 169.975L44.5535 171.636L52.7136 158.226L47.2785 155.775L40.8708 169.975Z" fill="#A0616A"/>
<path d="M39.0081 173.757L50.3322 178.864L50.3968 178.721C50.9241 177.552 50.9655 176.222 50.5119 175.023C50.0582 173.824 49.1467 172.854 47.9778 172.326L46.6171 169.824L42.0496 169.653L41.0611 169.207L39.0081 173.757Z" fill="#2F2E41"/>
<path d="M86.4808 151.739L90.37 150.647L88.0095 135.129L82.2688 136.74L86.4808 151.739Z" fill="#A0616A"/>
<path d="M87.4829 155.833L99.4437 152.477L99.4012 152.325C99.0546 151.091 98.2317 150.045 97.1136 149.417C95.9954 148.789 94.6737 148.631 93.4389 148.978L90.7886 147.934L87.1775 150.735L86.1334 151.028L87.4829 155.833Z" fill="#2F2E41"/>
<path d="M27.6144 106.396C27.7138 109.272 33.8336 117.034 37.0522 118.146C37.5993 118.336 37.919 118.44 37.919 118.44L39.0393 118.101L52.6051 113.998C54.9806 115.395 62.0666 116.105 67.8809 116.461C72.5087 116.742 75.0882 119.161 75.0882 119.161C76.4534 129.541 80.3894 137.109 84.9283 146.409L90.3755 145.462L85.2294 110.818C85.1183 110.07 84.7897 109.371 84.2845 108.808C83.7793 108.245 83.1198 107.843 82.3879 107.652L45.3698 97.9715C45.3698 97.9715 43.3283 97.6021 39.0227 99.6786C31.9342 103.097 27.5433 104.303 27.6144 106.396Z" fill="#2F2E41"/>
<path d="M34.6878 105.839C33.4463 108.436 35.2861 118.146 37.6261 120.62L38.2472 121.042L38.4572 121.152C39.8609 125.898 54.9241 139.781 54.9241 139.781C49.836 146.261 45.3017 154.167 43.2785 163.024L49.1618 165.173L65.7228 140.457C66.1565 139.81 66.3841 139.046 66.3756 138.267C66.3671 137.488 66.1228 136.73 65.675 136.092L58.9188 126.471L47.9099 105.152C40.0433 104.91 35.5923 103.95 34.6878 105.839Z" fill="#2F2E41"/>
<path d="M27.8357 107.527C27.8175 107.527 27.3863 106.398 27.3775 106.396C27.2309 106.355 25.246 106.159 25.6924 102.874L26.2635 99.258L25.706 96.0654L24.7682 95.1279L26.2754 93.6212L25.3517 86.7874L24.9971 73.105C24.107 68.4051 24.3394 64.1065 28.6512 62.0365L33.5944 57.4529L39.2193 57.3848L45.6008 61.1669L48.6926 67.329L49.8919 84.029L50.7873 86.1178L50.7106 86.1871C50.7047 86.1925 50.1081 86.7318 49.8401 87.0284C49.7103 87.2127 49.9539 88.589 50.2546 89.7576L50.6402 92.6422L49.6684 93.3366L50.932 94.8287L54.3767 100.65L54.1703 100.598C53.9378 100.54 51.7715 103.791 27.9949 107.406C27.8852 107.423 27.8814 107.527 27.8357 107.527Z" fill="#3F3D56"/>
<path d="M55.0615 71.3842L53.0931 70.3574C52.7843 70.1959 52.5522 69.9185 52.4477 69.586C52.3433 69.2536 52.3749 68.8934 52.5358 68.5843L57.2484 59.5556C57.41 59.2469 57.6874 59.0148 58.0199 58.9104C58.3524 58.8059 58.7128 58.8376 59.022 58.9984L60.9903 60.0252C61.2991 60.1867 61.5312 60.4641 61.6357 60.7965C61.7402 61.1289 61.7085 61.4892 61.5476 61.7983L56.835 70.827C56.6735 71.1357 56.396 71.3678 56.0635 71.4722C55.731 71.5767 55.3706 71.545 55.0615 71.3842Z" fill="#3F3D56"/>
<path d="M58.5514 59.3388C58.3847 59.2521 58.1906 59.235 58.0114 59.2913C57.8322 59.3476 57.6827 59.4727 57.5956 59.639L52.8831 68.6677C52.7964 68.8343 52.7793 69.0284 52.8356 69.2076C52.8919 69.3867 53.017 69.5362 53.1834 69.6232L55.1517 70.65C55.3183 70.7367 55.5125 70.7537 55.6917 70.6975C55.8709 70.6412 56.0204 70.5161 56.1075 70.3498L60.82 61.321C60.9067 61.1545 60.9238 60.9603 60.8675 60.7812C60.8112 60.6021 60.6861 60.4526 60.5197 60.3656L58.5514 59.3388Z" fill="#E71E86"/>
<path d="M37.6743 56.1523C42.1159 56.1523 45.7166 52.5527 45.7166 48.1123C45.7166 43.6719 42.1159 40.0723 37.6743 40.0723C33.2326 40.0723 29.632 43.6719 29.632 48.1123C29.632 52.5527 33.2326 56.1523 37.6743 56.1523Z" fill="#A0616A"/>
<path d="M33.7189 53.2907C33.3663 53.0104 32.9264 52.8627 32.4761 52.8735C32.3363 52.8964 32.2031 52.9488 32.0851 53.0271C31.9672 53.1054 31.8672 53.2079 31.7918 53.3277C31.7499 53.3804 31.6955 53.4218 31.6336 53.4481C31.5717 53.4744 31.5041 53.4849 31.4371 53.4786C30.579 53.5098 28.7499 51.9183 28.6249 48.8475C28.5654 47.3881 27.692 44.9185 29.0824 43.581C29.1757 43.0413 30.2614 37.4624 35.1557 37.3087C40.1665 37.1495 43.502 38.1558 44.3033 40.0649C44.8598 41.5807 45.2828 43.1421 45.5676 44.7314L45.7357 45.6763L45.3431 44.8005C45.3357 44.7841 44.6196 43.2159 43.2917 42.6928C43.2702 42.948 43.2052 43.1977 43.0997 43.4311C42.6664 44.3698 41.5742 44.9825 40.317 44.9919C39.4484 44.9652 38.5918 44.781 37.7889 44.4485C37.8798 44.5796 37.9308 44.7343 37.9359 44.8938C37.9409 45.0532 37.8996 45.2108 37.8171 45.3474C37.7346 45.484 37.6143 45.5938 37.4708 45.6636C37.3273 45.7334 37.1666 45.7602 37.0082 45.7409L36.7758 45.712C36.7025 45.7028 36.6284 45.7196 36.5662 45.7594C36.5041 45.7992 36.4578 45.8594 36.4355 45.9298C36.4131 46.0001 36.4161 46.076 36.4439 46.1444C36.4717 46.2127 36.5225 46.2692 36.5876 46.304L36.7923 46.4134L36.5439 46.5335C35.5441 46.9794 34.7202 47.744 34.2012 48.7076C33.6822 49.6713 33.4972 50.7798 33.6753 51.8597L33.9649 53.4882L33.7189 53.2907Z" fill="#2F2E41"/>
<path d="M161.051 177.528C160.831 177.538 160.613 177.48 160.427 177.362C160.241 177.245 160.096 177.073 160.011 176.87C159.926 176.666 159.906 176.442 159.953 176.227C159.999 176.012 160.111 175.817 160.273 175.667L160.346 175.375C160.337 175.351 160.327 175.328 160.317 175.305C160.096 174.781 159.724 174.335 159.25 174.022C158.776 173.709 158.219 173.544 157.651 173.546C157.083 173.548 156.528 173.718 156.056 174.034C155.584 174.351 155.216 174.8 154.998 175.324C154.128 177.419 153.021 179.517 152.748 181.732C152.628 182.711 152.678 183.703 152.898 184.665C150.854 180.209 149.793 175.366 149.786 170.464C149.786 169.234 149.854 168.005 149.991 166.783C150.104 165.78 150.261 164.785 150.462 163.798C151.557 158.438 153.908 153.414 157.323 149.138C158.975 148.237 160.312 146.851 161.152 145.167C161.457 144.561 161.672 143.915 161.791 143.248C161.605 143.272 161.415 143.288 161.229 143.3C161.171 143.303 161.109 143.306 161.051 143.309L161.029 143.31C160.825 143.319 160.621 143.269 160.444 143.165C160.267 143.062 160.124 142.909 160.032 142.726C159.939 142.543 159.902 142.337 159.924 142.133C159.946 141.93 160.026 141.736 160.156 141.577C160.236 141.478 160.317 141.379 160.397 141.28C160.52 141.128 160.645 140.978 160.767 140.825C160.781 140.811 160.795 140.795 160.807 140.779C160.947 140.605 161.088 140.434 161.229 140.26C160.972 139.862 160.627 139.528 160.22 139.285C158.811 138.46 156.868 139.032 155.85 140.306C154.829 141.58 154.637 143.367 154.991 144.959C155.34 146.313 155.916 147.599 156.696 148.76C156.62 148.857 156.541 148.952 156.464 149.05C155.067 150.845 153.85 152.773 152.83 154.806C153.078 152.529 152.782 150.225 151.965 148.084C151.138 146.089 149.588 144.409 148.223 142.685C146.582 140.613 143.22 141.517 142.931 144.143C142.928 144.169 142.925 144.194 142.922 144.219C143.125 144.334 143.324 144.455 143.518 144.584C143.762 144.747 143.951 144.979 144.06 145.252C144.17 145.524 144.194 145.823 144.131 146.109C144.067 146.396 143.919 146.656 143.705 146.857C143.491 147.057 143.221 147.189 142.931 147.233L142.901 147.238C142.973 147.969 143.101 148.693 143.283 149.404C143.811 151.39 144.743 153.246 146.021 154.854C147.3 156.463 148.897 157.791 150.712 158.753C150.832 158.814 150.948 158.876 151.067 158.934C150.042 161.838 149.399 164.864 149.154 167.934C149.015 169.746 149.023 171.566 149.178 173.376L149.169 173.312C148.778 171.299 147.704 169.483 146.128 168.17C143.788 166.248 140.482 165.54 137.957 163.995C137.689 163.823 137.377 163.731 137.058 163.731C136.74 163.73 136.427 163.82 136.158 163.991C135.889 164.162 135.674 164.406 135.539 164.695C135.405 164.984 135.355 165.305 135.397 165.621C135.4 165.644 135.404 165.666 135.407 165.689C135.784 165.842 136.15 166.019 136.505 166.217C136.707 166.332 136.906 166.453 137.1 166.582C137.344 166.745 137.533 166.977 137.643 167.25C137.752 167.522 137.776 167.821 137.713 168.107C137.649 168.394 137.501 168.654 137.287 168.855C137.073 169.055 136.803 169.187 136.513 169.231L136.483 169.236C136.462 169.239 136.443 169.242 136.422 169.245C137.065 170.78 137.968 172.193 139.09 173.422C140.477 174.909 142.153 176.098 144.015 176.915C145.877 177.732 147.887 178.16 149.921 178.173H149.924C150.476 180.571 151.276 182.906 152.311 185.139H160.837C160.868 185.044 160.896 184.946 160.923 184.851C160.134 184.901 159.341 184.854 158.564 184.711C159.196 183.935 159.829 183.153 160.462 182.377C160.476 182.362 160.489 182.347 160.501 182.331C160.822 181.934 161.146 181.54 161.467 181.142L161.467 181.142C161.484 179.924 161.344 178.71 161.051 177.528Z" fill="#E6E6E6"/>
<path d="M202.038 45.3496C202.202 45.4959 202.318 45.6891 202.369 45.9032C202.42 46.1174 202.404 46.342 202.323 46.5467C202.242 46.7514 202.1 46.9262 201.916 47.0476C201.733 47.1689 201.516 47.2309 201.296 47.2251L201.039 47.3832C201.03 47.4067 201.02 47.4302 201.011 47.4538C200.804 47.9831 200.759 48.5616 200.88 49.1167C201.001 49.6718 201.284 50.1787 201.692 50.5737C202.101 50.9687 202.617 51.2343 203.176 51.337C203.735 51.4398 204.312 51.3751 204.834 51.1511C206.919 50.2581 209.178 49.5283 210.919 48.1326C211.689 47.5153 212.345 46.7692 212.86 45.9276C211.212 50.5444 208.59 54.753 205.173 58.2682C204.315 59.1494 203.408 59.9819 202.456 60.7618C201.675 61.4006 200.868 62.0037 200.035 62.5711C195.509 65.6454 190.317 67.6025 184.887 68.2816C183.074 67.774 181.149 67.8342 179.372 68.454C178.731 68.6751 178.126 68.9878 177.575 69.3824C177.725 69.4949 177.872 69.6162 178.014 69.7375C178.058 69.7759 178.103 69.8163 178.147 69.8547L178.164 69.8692C178.317 70.0056 178.427 70.1834 178.482 70.381C178.536 70.5787 178.532 70.7879 178.47 70.9834C178.409 71.179 178.292 71.3525 178.134 71.4831C177.976 71.6138 177.783 71.6959 177.58 71.7198C177.453 71.7345 177.326 71.7492 177.199 71.7638C177.005 71.7879 176.811 71.8077 176.617 71.8318C176.596 71.8324 176.576 71.8341 176.556 71.8369C176.334 71.8635 176.114 71.888 175.891 71.9146C175.797 72.3788 175.811 72.8585 175.933 73.3163C176.366 74.8901 178.157 75.8372 179.775 75.6349C181.396 75.4348 182.782 74.2891 183.639 72.9019C184.335 71.6886 184.819 70.3658 185.071 68.9901C185.194 68.9734 185.317 68.961 185.44 68.9443C187.694 68.6331 189.912 68.1018 192.062 67.3581C190.294 68.8158 188.898 70.6722 187.988 72.7747C187.187 74.7805 187.125 77.0656 186.898 79.2533C186.627 81.8811 189.666 83.5803 191.706 81.9013C191.726 81.8851 191.746 81.8688 191.766 81.8524C191.7 81.629 191.643 81.4036 191.593 81.1761C191.532 80.8891 191.56 80.5904 191.671 80.3191C191.783 80.0479 191.974 79.8167 192.22 79.6558C192.465 79.495 192.753 79.412 193.047 79.4178C193.34 79.4236 193.625 79.5178 193.864 79.6882L193.888 79.7057C194.347 79.132 194.761 78.5243 195.127 77.8878C196.136 76.0976 196.764 74.1183 196.971 72.0742C197.179 70.03 196.962 67.965 196.334 66.0086C196.291 65.8817 196.251 65.7569 196.206 65.6321C198.968 64.2673 201.541 62.5493 203.86 60.5212C205.224 59.3207 206.488 58.0118 207.641 56.6074L207.603 56.6598C206.478 58.3742 205.979 60.4244 206.191 62.4639C206.525 65.473 208.399 68.2867 209.128 71.1545C209.2 71.465 209.359 71.7485 209.587 71.9716C209.815 72.1946 210.102 72.3478 210.414 72.4133C210.726 72.4787 211.05 72.4535 211.348 72.3407C211.646 72.2279 211.906 72.0322 212.097 71.7767C212.11 71.7583 212.123 71.7398 212.136 71.7212C211.974 71.3489 211.835 70.9668 211.72 70.5772C211.654 70.3537 211.597 70.1283 211.548 69.9008C211.487 69.6138 211.514 69.3151 211.626 69.0439C211.737 68.7726 211.928 68.5414 212.174 68.3806C212.419 68.2197 212.708 68.1368 213.001 68.1425C213.294 68.1483 213.579 68.2426 213.818 68.4129L213.843 68.4304C213.86 68.4431 213.875 68.4537 213.893 68.4664C214.504 66.9186 214.844 65.2771 214.898 63.6139C214.943 61.5811 214.573 59.5605 213.81 57.6759C213.046 55.7913 211.906 54.0824 210.459 52.6541L210.456 52.652C211.735 50.5492 212.792 48.3192 213.61 45.9979L207.504 40.0483C207.416 40.0948 207.328 40.1457 207.242 40.1943C207.842 40.7095 208.377 41.2961 208.834 41.9412C207.839 42.0555 206.84 42.1743 205.845 42.2886C205.825 42.2891 205.805 42.2908 205.785 42.2937C205.278 42.3542 204.77 42.4104 204.263 42.4709L204.263 42.4711C203.401 43.3311 202.653 44.2987 202.038 45.3496Z" fill="#E6E6E6"/>
<path d="M55.0384 69.2098L47.3494 77.9432L51.7158 82.1488C51.7158 82.1488 58.0487 71.76 58.2593 71.3582C58.8412 71.2752 59.3842 71.0176 59.8165 70.6194C60.2487 70.2211 60.5499 69.7011 60.6801 69.128C60.8103 68.555 60.7634 67.9559 60.5456 67.4101C60.3278 66.8643 59.9494 66.3974 59.4604 66.0713C58.9715 65.7451 58.395 65.575 57.8072 65.5836C57.2195 65.5921 56.6481 65.7788 56.1688 66.119C55.6895 66.4592 55.3248 66.9368 55.123 67.4887C54.9211 68.0406 54.8916 68.6408 55.0384 69.2098Z" fill="#A0616A"/>
<path d="M28.1801 63.9113C28.3384 73.0269 35.2591 80.5303 40.5038 88.7591C41.2761 89.2691 42.1464 89.6124 43.0591 89.767C43.9717 89.9216 44.9065 89.8841 45.8039 89.657C46.7012 89.4298 47.5412 89.018 48.2702 88.4478C48.9993 87.8776 49.6013 87.1616 50.0377 86.3456L54.637 77.8573L48.7837 76.219L45.6788 78.2558L39.2014 70.6516L28.1801 63.9113Z" fill="#3F3D56"/>
</g>
<defs>
<clipPath id="clip0_67_771">
<rect width="317" height="246" fill="white" transform="translate(0.5)"/>
</clipPath>
</defs>
</svg>
