<svg width="316" height="301" viewBox="0 0 316 301" fill="none" xmlns="http://www.w3.org/2000/svg">
<mask id="path-1-inside-1_70_1119" fill="white">
<path d="M0 0H316V301H0V0Z"/>
</mask>
<path d="M316 301V300H0V301V302H316V301Z" fill="#E0E0E0" mask="url(#path-1-inside-1_70_1119)"/>
<path d="M240.989 153.608L239.644 156.97C239.644 156.97 238.405 161.675 239.856 163.552C241.306 165.429 241.628 179.796 240.072 180.858C238.511 181.92 259.831 171.02 259.831 171.02C259.831 171.02 251.507 151.731 251.366 151.661C251.225 151.59 245.772 149.89 245.772 149.89L240.993 153.604L240.989 153.608Z" fill="#2F2E43"/>
<path d="M254.867 170.222L247.725 172.571V162.296H254.206L254.867 170.222Z" fill="#F6A6A9"/>
<path d="M233.036 228.555C232.648 230.908 231.078 232.595 229.526 232.327C227.975 232.054 227.031 229.926 227.419 227.573C227.56 226.63 227.935 225.74 228.508 224.973L230.28 215.021L235.099 216.03L232.842 225.731C233.137 226.648 233.208 227.617 233.036 228.555Z" fill="#F6A6A9"/>
<path d="M252.186 285.249H245.494V294.735H252.186V285.249Z" fill="#F6A6A9"/>
<path d="M238.978 300.476C238.273 300.476 237.647 300.458 237.175 300.414C235.399 300.251 233.701 298.943 232.851 298.176C232.467 297.832 232.344 297.282 232.546 296.81C232.687 296.471 232.974 296.215 233.331 296.114L238.026 294.775L245.631 289.646L245.715 289.796C245.746 289.853 246.495 291.197 246.742 292.105C246.839 292.448 246.812 292.739 246.667 292.959C246.566 293.114 246.429 293.202 246.314 293.255C246.451 293.4 246.883 293.691 248.21 293.902C250.15 294.211 250.555 292.202 250.573 292.118L250.586 292.052L250.643 292.017C251.565 291.422 252.133 291.153 252.332 291.21C252.455 291.246 252.658 291.307 253.209 296.779C253.266 296.951 253.65 298.211 253.39 299.414C253.103 300.722 247.381 300.273 246.235 300.167C246.204 300.167 241.915 300.476 238.978 300.476Z" fill="#2F2E43"/>
<path d="M271.232 277.792L265.554 281.331L270.577 289.38L276.255 285.841L271.232 277.792Z" fill="#F6A6A9"/>
<path d="M263.693 299.176C262.908 299.176 262.185 299.083 261.674 298.991C261.167 298.903 260.774 298.502 260.691 297.995C260.633 297.629 260.739 297.264 260.986 296.991L264.261 293.369L268 284.998L268.154 285.082C268.211 285.113 269.556 285.857 270.248 286.496C270.513 286.738 270.645 286.998 270.636 287.263C270.636 287.448 270.561 287.597 270.495 287.699C270.689 287.747 271.209 287.769 272.448 287.245C274.256 286.483 273.541 284.562 273.506 284.478L273.48 284.416L273.511 284.355C273.978 283.363 274.317 282.83 274.516 282.777C274.639 282.742 274.846 282.689 278.21 287.038C278.347 287.152 279.343 288.016 279.757 289.179C280.207 290.444 275.111 293.087 274.088 293.603C274.057 293.629 268.723 297.502 266.536 298.603C265.668 299.039 264.641 299.176 263.702 299.176H263.693Z" fill="#2F2E43"/>
<path d="M257.111 205.932H238.383L236.682 223.343L244.119 287.677H253.681L249.859 250.518L265.368 284.064L273.868 278.121L261.757 246.804C261.757 246.804 266.082 219.519 262.683 212.725C259.284 205.932 257.115 205.932 257.115 205.932H257.111Z" fill="#2F2E43"/>
<path d="M266.426 206.993H233.917L245.604 168.562H258.566L266.426 206.993Z" fill="#E6E6E6"/>
<path d="M247.65 168.566C247.65 168.566 239.578 168.354 238.727 170.478C237.876 172.602 227.891 223.136 227.891 223.136H234.477L247.65 168.566Z" fill="#E6E6E6"/>
<path d="M248.611 165.138C252.541 165.138 255.726 161.954 255.726 158.027C255.726 154.1 252.541 150.916 248.611 150.916C244.681 150.916 241.496 154.1 241.496 158.027C241.496 161.954 244.681 165.138 248.611 165.138Z" fill="#F6A6A9"/>
<path d="M249.991 146.977C249.991 146.977 258.561 144.783 261.18 156.177C261.18 156.177 261.25 159.151 262.736 160.354C264.222 161.556 263.728 167.786 263.728 167.786C263.728 167.786 266.563 172.456 264.151 174.58C264.151 174.58 263.089 178.898 264.645 181.374C266.201 183.85 272.082 197.477 262.308 198.305C262.308 198.305 257.353 195.314 259.69 186.396C262.026 177.479 259.408 172.553 259.408 172.553C259.408 172.553 251.9 169.835 252.327 164.028C252.751 158.226 247.513 152.494 247.156 152.564C246.799 152.635 243.118 150.511 241.491 157.023L239.745 156.728C239.745 156.728 239.014 145.77 249.991 146.973V146.977Z" fill="#2F2E43"/>
<path d="M271.972 227.41C272.448 229.749 271.58 231.882 270.032 232.181C268.485 232.476 266.849 230.824 266.373 228.485C266.17 227.555 266.201 226.586 266.466 225.669L264.583 215.739L269.446 214.972L270.782 224.846C271.386 225.599 271.791 226.48 271.967 227.419L271.972 227.41Z" fill="#F6A6A9"/>
<path d="M252.901 168.61C252.901 168.61 260.011 167.711 260.862 169.835C261.713 171.958 271.699 222.493 271.699 222.493H265.112L252.905 168.614L252.901 168.61Z" fill="#E6E6E6"/>
<path d="M42.7541 93.328H8.1029C3.63705 93.328 0 89.6976 0 85.2302V50.6005C0 46.1375 3.63264 42.5027 8.1029 42.5027H42.7541C47.2199 42.5027 50.857 46.1331 50.857 50.6005V85.2302C50.857 89.6932 47.2243 93.328 42.7541 93.328ZM8.1029 43.3883C4.12199 43.3883 0.881709 46.6265 0.881709 50.605V85.2346C0.881709 89.213 4.12199 92.4513 8.1029 92.4513H42.7541C46.735 92.4513 49.9753 89.213 49.9753 85.2346V50.605C49.9753 46.6265 46.735 43.3883 42.7541 43.3883H8.1029Z" fill="#CCCCCC"/>
<path d="M117.999 93.328H83.3479C78.882 93.328 75.245 89.6976 75.245 85.2302V50.6005C75.245 46.1375 78.8776 42.5027 83.3479 42.5027H117.999C122.465 42.5027 126.102 46.1331 126.102 50.6005V85.2302C126.102 89.6932 122.469 93.328 117.999 93.328ZM83.3479 43.3838C79.367 43.3838 76.1267 46.6221 76.1267 50.6005V85.2302C76.1267 89.2086 79.367 92.4469 83.3479 92.4469H117.999C121.98 92.4469 125.22 89.2086 125.22 85.2302V50.6005C125.22 46.6221 121.98 43.3838 117.999 43.3838H83.3479Z" fill="#CCCCCC"/>
<path d="M117.999 187.643H83.3479C78.882 187.643 75.245 184.013 75.245 179.545V144.916C75.245 140.453 78.8776 136.818 83.3479 136.818H117.999C122.465 136.818 126.102 140.448 126.102 144.916V179.545C126.102 184.008 122.469 187.643 117.999 187.643ZM83.3479 137.699C79.367 137.699 76.1267 140.937 76.1267 144.916V179.545C76.1267 183.524 79.367 186.762 83.3479 186.762H117.999C121.98 186.762 125.22 183.524 125.22 179.545V144.916C125.22 140.937 121.98 137.699 117.999 137.699H83.3479Z" fill="#CCCCCC"/>
<path d="M42.7541 187.643H8.1029C3.63705 187.643 0 184.013 0 179.545V144.916C0 140.453 3.63264 136.818 8.1029 136.818H42.7541C47.2199 136.818 50.857 140.448 50.857 144.916V179.545C50.857 184.008 47.2243 187.643 42.7541 187.643ZM8.1029 137.699C4.12199 137.699 0.881709 140.937 0.881709 144.916V179.545C0.881709 183.524 4.12199 186.762 8.1029 186.762H42.7541C46.735 186.762 49.9753 183.524 49.9753 179.545V144.916C49.9753 140.937 46.735 137.699 42.7541 137.699H8.1029Z" fill="#CCCCCC"/>
<path d="M48.9481 149.344C54.6235 149.344 59.2244 144.746 59.2244 139.074C59.2244 133.402 54.6235 128.804 48.9481 128.804C43.2726 128.804 38.6718 133.402 38.6718 139.074C38.6718 144.746 43.2726 149.344 48.9481 149.344Z" fill="#762C85"/>
<path d="M193.244 93.328H158.593C154.127 93.328 150.49 89.6976 150.49 85.2302V50.6005C150.49 46.1375 154.123 42.5027 158.593 42.5027H193.244C197.71 42.5027 201.347 46.1331 201.347 50.6005V85.2302C201.347 89.6932 197.714 93.328 193.244 93.328ZM158.593 43.3838C154.612 43.3838 151.372 46.6221 151.372 50.6005V85.2302C151.372 89.2086 154.612 92.4469 158.593 92.4469H193.244C197.225 92.4469 200.465 89.2086 200.465 85.2302V50.6005C200.465 46.6221 197.225 43.3838 193.244 43.3838H158.593Z" fill="#CCCCCC"/>
<path d="M200.906 55.0328C206.582 55.0328 211.183 50.4348 211.183 44.7628C211.183 39.0909 206.582 34.4929 200.906 34.4929C195.231 34.4929 190.63 39.0909 190.63 44.7628C190.63 50.4348 195.231 55.0328 200.906 55.0328Z" fill="#762C85"/>
<path d="M34.4792 103.902H13.8075C12.1896 103.902 10.8759 102.589 10.8759 100.972C10.8759 99.3552 12.1896 98.0422 13.8075 98.0422H34.4792C36.0971 98.0422 37.4109 99.3552 37.4109 100.972C37.4109 102.589 36.0971 103.902 34.4792 103.902Z" fill="#E6E6E6"/>
<path d="M111.007 103.902H90.3355C88.7176 103.902 87.4038 102.589 87.4038 100.972C87.4038 99.3552 88.7176 98.0422 90.3355 98.0422H111.007C112.625 98.0422 113.939 99.3552 113.939 100.972C113.939 102.589 112.625 103.902 111.007 103.902Z" fill="#E6E6E6"/>
<path d="M187.54 103.902H166.868C165.25 103.902 163.936 102.589 163.936 100.972C163.936 99.3552 165.25 98.0422 166.868 98.0422H187.54C189.157 98.0422 190.471 99.3552 190.471 100.972C190.471 102.589 189.157 103.902 187.54 103.902Z" fill="#E6E6E6"/>
<path d="M193.244 188.524H158.593C154.127 188.524 150.49 184.894 150.49 180.426V145.797C150.49 141.334 154.123 137.699 158.593 137.699H193.244C197.71 137.699 201.347 141.329 201.347 145.797V180.426C201.347 184.89 197.714 188.524 193.244 188.524ZM158.593 138.58C154.612 138.58 151.372 141.818 151.372 145.797V180.426C151.372 184.405 154.612 187.643 158.593 187.643H193.244C197.225 187.643 200.465 184.405 200.465 180.426V145.797C200.465 141.818 197.225 138.58 193.244 138.58H158.593Z" fill="#CCCCCC"/>
<path d="M187.54 199.094H166.868C165.25 199.094 163.936 197.781 163.936 196.164C163.936 194.547 165.25 193.234 166.868 193.234H187.54C189.157 193.234 190.471 194.547 190.471 196.164C190.471 197.781 189.157 199.094 187.54 199.094Z" fill="#E6E6E6"/>
<path d="M268.494 93.328H233.842C229.377 93.328 225.74 89.6976 225.74 85.2302V50.6005C225.74 46.1375 229.372 42.5027 233.842 42.5027H268.494C272.959 42.5027 276.596 46.1331 276.596 50.6005V85.2302C276.596 89.6932 272.964 93.328 268.494 93.328ZM233.842 43.3838C229.861 43.3838 226.621 46.6221 226.621 50.6005V85.2302C226.621 89.2086 229.861 92.4469 233.842 92.4469H268.494C272.474 92.4469 275.715 89.2086 275.715 85.2302V50.6005C275.715 46.6221 272.474 43.3838 268.494 43.3838H233.842Z" fill="#CCCCCC"/>
<path d="M262.785 103.902H242.113C240.495 103.902 239.181 102.589 239.181 100.972C239.181 99.3552 240.495 98.0422 242.113 98.0422H262.785C264.402 98.0422 265.716 99.3552 265.716 100.972C265.716 102.589 264.402 103.902 262.785 103.902Z" fill="#E6E6E6"/>
<path d="M34.4792 198.213H13.8075C12.1896 198.213 10.8759 196.9 10.8759 195.283C10.8759 193.666 12.1896 192.353 13.8075 192.353H34.4792C36.0971 192.353 37.4109 193.666 37.4109 195.283C37.4109 196.9 36.0971 198.213 34.4792 198.213Z" fill="#E6E6E6"/>
<path d="M111.007 198.213H90.3355C88.7176 198.213 87.4038 196.9 87.4038 195.283C87.4038 193.666 88.7176 192.353 90.3355 192.353H111.007C112.625 192.353 113.939 193.666 113.939 195.283C113.939 196.9 112.625 198.213 111.007 198.213Z" fill="#E6E6E6"/>
<path d="M131.26 228.943C132.653 228.943 133.782 227.815 133.782 226.423C133.782 225.031 132.653 223.903 131.26 223.903C129.867 223.903 128.738 225.031 128.738 226.423C128.738 227.815 129.867 228.943 131.26 228.943Z" fill="#762C85"/>
<path d="M138.737 228.943C140.13 228.943 141.259 227.815 141.259 226.423C141.259 225.031 140.13 223.903 138.737 223.903C137.344 223.903 136.215 225.031 136.215 226.423C136.215 227.815 137.344 228.943 138.737 228.943Z" fill="#E6E6E6"/>
<path d="M146.214 228.943C147.606 228.943 148.735 227.815 148.735 226.423C148.735 225.031 147.606 223.903 146.214 223.903C144.821 223.903 143.692 225.031 143.692 226.423C143.692 227.815 144.821 228.943 146.214 228.943Z" fill="#E6E6E6"/>
<path d="M173.37 12.4199H104.095C100.669 12.4199 97.8829 9.63548 97.8829 6.21217C97.8829 2.78886 100.669 0.00439453 104.095 0.00439453H173.37C176.796 0.00439453 179.582 2.78886 179.582 6.21217C179.582 9.63548 176.796 12.4199 173.37 12.4199ZM104.099 0.881149C101.158 0.881149 98.769 3.2735 98.769 6.20776C98.769 9.14203 101.163 11.5344 104.099 11.5344H173.375C176.315 11.5344 178.705 9.14203 178.705 6.20776C178.705 3.2735 176.311 0.881149 173.375 0.881149H104.099Z" fill="#CCCCCC"/>
<path d="M123.929 7.83347C122.535 7.83347 121.402 6.70118 121.402 5.30895C121.402 3.91671 122.535 2.78442 123.929 2.78442C125.322 2.78442 126.455 3.91671 126.455 5.30895C126.455 6.70118 125.322 7.83347 123.929 7.83347ZM123.929 3.47173C122.915 3.47173 122.09 4.29561 122.09 5.30895C122.09 6.32228 122.915 7.14617 123.929 7.14617C124.943 7.14617 125.767 6.32228 125.767 5.30895C125.767 4.29561 124.943 3.47173 123.929 3.47173Z" fill="#484662"/>
<path d="M128.69 9.89989C128.61 9.89989 128.531 9.87346 128.465 9.81618L125.273 7.08018C125.128 6.95682 125.114 6.74093 125.238 6.59554C125.361 6.45015 125.577 6.43693 125.723 6.5603L128.915 9.2963C129.06 9.41966 129.073 9.63555 128.95 9.78094C128.884 9.86024 128.787 9.89989 128.69 9.89989Z" fill="#484662"/>
</svg>
