<svg width="485" height="256" viewBox="0 0 485 256" fill="none" xmlns="http://www.w3.org/2000/svg">
<g clip-path="url(#clip0_361_4435)">
<path d="M446.303 230.229C463.122 213.41 463.122 186.141 446.303 169.322C429.484 152.504 402.215 152.504 385.397 169.322C368.578 186.141 368.578 213.41 385.397 230.229C402.215 247.048 429.484 247.048 446.303 230.229Z" fill="#2F2E41"/>
<path d="M415.611 203.737C423.548 201.98 428.558 194.122 426.801 186.185C425.044 178.248 417.185 173.238 409.248 174.994C401.311 176.751 396.301 184.61 398.058 192.547C399.815 200.484 407.673 205.494 415.611 203.737Z" fill="white"/>
<path d="M407.526 190.355C410.172 189.769 411.842 187.15 411.257 184.504C410.671 181.858 408.051 180.188 405.406 180.774C402.76 181.36 401.09 183.979 401.676 186.625C402.261 189.271 404.881 190.941 407.526 190.355Z" fill="#3F3D56"/>
<path d="M414.148 170.66C396.534 170.627 384.17 167.481 384.199 151.524C384.229 135.567 398.531 122.657 416.144 122.69C433.758 122.722 448.012 135.685 447.982 151.642C447.953 167.599 431.761 170.692 414.148 170.66Z" fill="#E71E86"/>
<path d="M483.351 206.974C478.299 224.501 463.548 236.77 448.16 247.192C446.012 248.647 443.862 250.069 441.712 251.458C441.698 251.464 441.683 251.478 441.668 251.484C441.565 251.551 441.461 251.617 441.365 251.684C440.921 251.97 440.477 252.256 440.037 252.539L440.279 252.648C440.279 252.648 440.516 252.774 440.256 252.668C440.179 252.636 440.098 252.606 440.021 252.574C431.082 248.969 421.984 245.098 415.133 238.343C408.027 231.33 403.873 220.329 407.722 211.116C408.227 209.909 408.866 208.762 409.626 207.697C409.939 207.25 410.275 206.823 410.625 206.403C412.747 203.812 415.522 201.834 418.663 200.671C421.803 199.508 425.197 199.202 428.495 199.786C431.793 200.369 434.876 201.821 437.427 203.991C439.978 206.161 441.905 208.971 443.01 212.133C444.141 201.607 435.462 192.79 427.109 186.284C418.753 179.782 409.258 172.701 407.642 162.234C406.74 156.41 408.765 150.766 412.455 146.235C412.569 146.098 412.683 145.96 412.8 145.826C417.291 140.549 423.607 137.161 430.488 136.337C443.301 135.006 455.747 141.788 465.055 150.697C480.037 165.031 489.095 187.047 483.351 206.974Z" fill="url(#paint0_linear_361_4435)"/>
<path d="M459.268 184.05C461.727 187.876 463.615 192.04 464.872 196.411C465.935 200.318 466.409 204.361 466.276 208.408C465.933 216.735 463.596 224.857 459.46 232.092C456.345 237.581 452.548 242.655 448.161 247.192C446.012 248.647 443.863 250.069 441.713 251.458C441.698 251.464 441.683 251.478 441.669 251.484C441.565 251.551 441.462 251.617 441.365 251.684C440.921 251.97 440.478 252.256 440.038 252.539C440.038 252.539 440.517 252.774 440.257 252.668C440.18 252.636 440.099 252.606 440.022 252.574C440.823 246.005 440.038 239.34 437.733 233.137C435.427 226.934 431.669 221.374 426.773 216.923C421.864 212.54 415.989 209.378 409.627 207.697C409.939 207.25 410.275 206.823 410.625 206.403C413.083 207.092 415.474 207.997 417.772 209.107C425.986 213.052 432.712 219.536 436.954 227.601C440.76 234.924 442.399 243.181 441.676 251.402C442.043 251.069 442.411 250.729 442.768 250.392C449.561 244.059 455.594 236.79 459.677 228.4C463.22 221.296 464.961 213.429 464.747 205.493C464.414 196.84 460.966 188.825 455.974 181.847C450.503 174.403 444.04 167.741 436.764 162.048C429.431 156.175 421.408 151.222 412.872 147.298C412.679 147.208 412.529 147.048 412.451 146.85C412.373 146.652 412.375 146.432 412.455 146.235C412.512 146.059 412.636 145.912 412.801 145.826C412.886 145.79 412.978 145.773 413.07 145.777C413.162 145.781 413.252 145.805 413.333 145.849C414.387 146.334 415.434 146.826 416.472 147.339C425.119 151.613 433.202 156.945 440.535 163.212C447.617 169.25 454.285 176.149 459.268 184.05Z" fill="#CCCCCC"/>
<path d="M61.7137 255.549C67.7353 255.549 72.6168 253.718 72.6168 251.46C72.6168 249.202 67.7353 247.372 61.7137 247.372C55.692 247.372 50.8105 249.202 50.8105 251.46C50.8105 253.718 55.692 255.549 61.7137 255.549Z" fill="#2F2E41"/>
<path d="M87.8817 255.004C93.9033 255.004 98.7848 253.173 98.7848 250.915C98.7848 248.657 93.9033 246.826 87.8817 246.826C81.86 246.826 76.9785 248.657 76.9785 250.915C76.9785 253.173 81.86 255.004 87.8817 255.004Z" fill="#2F2E41"/>
<path d="M122.619 186.281C132.922 180.341 139.763 172.904 137.899 169.67C136.034 166.435 126.17 168.628 115.867 174.568C105.563 180.507 98.7225 187.945 100.587 191.179C102.452 194.414 112.316 192.221 122.619 186.281Z" fill="#2F2E41"/>
<path d="M112.948 200.845C116.758 177.367 100.814 155.245 77.3359 151.435C53.8576 147.625 31.736 163.569 27.926 187.048C24.116 210.526 40.0603 232.648 63.5386 236.458C87.0169 240.268 109.138 224.323 112.948 200.845Z" fill="#2F2E41"/>
<path d="M63.8943 227.746H50.8105V251.188H63.8943V227.746Z" fill="#2F2E41"/>
<path d="M90.0623 227.746H76.9785V251.188H90.0623V227.746Z" fill="#2F2E41"/>
<path d="M71.5259 197.762C79.6551 197.762 86.2451 191.172 86.2451 183.043C86.2451 174.914 79.6551 168.324 71.5259 168.324C63.3967 168.324 56.8066 174.914 56.8066 183.043C56.8066 191.172 63.3967 197.762 71.5259 197.762Z" fill="white"/>
<path d="M71.5275 187.95C74.2373 187.95 76.4339 185.753 76.4339 183.043C76.4339 180.333 74.2373 178.137 71.5275 178.137C68.8178 178.137 66.6211 180.333 66.6211 183.043C66.6211 185.753 68.8178 187.95 71.5275 187.95Z" fill="#3F3D56"/>
<path d="M28.6601 153.895C25.1827 138.321 36.2988 122.584 53.4887 118.746C70.6787 114.908 87.433 124.421 90.9104 139.995C94.3879 155.569 82.9955 161.313 65.8056 165.151C48.6156 168.989 32.1376 169.469 28.6601 153.895Z" fill="#E71E86"/>
<path d="M41.3836 183.191C42.9835 179.817 35.5696 172.951 24.8242 167.855C14.0788 162.759 4.07101 161.362 2.47111 164.735C0.8712 168.108 8.28505 174.974 19.0305 180.071C29.7759 185.167 39.7837 186.564 41.3836 183.191Z" fill="#2F2E41"/>
<path d="M49.2812 209.483C49.2812 213.698 60.1345 222.022 72.1778 222.022C84.221 222.022 95.5129 210.155 95.5129 205.94C95.5129 201.725 84.221 206.758 72.1778 206.758C60.1345 206.758 49.2812 205.268 49.2812 209.483Z" fill="white"/>
<path d="M220.608 255.549C226.63 255.549 231.511 253.718 231.511 251.46C231.511 249.202 226.63 247.372 220.608 247.372C214.587 247.372 209.705 249.202 209.705 251.46C209.705 253.718 214.587 255.549 220.608 255.549Z" fill="#2F2E41"/>
<path d="M194.442 255.004C200.464 255.004 205.345 253.173 205.345 250.915C205.345 248.657 200.464 246.826 194.442 246.826C188.421 246.826 183.539 248.657 183.539 250.915C183.539 253.173 188.421 255.004 194.442 255.004Z" fill="#2F2E41"/>
<path d="M181.735 191.179C183.599 187.944 176.758 180.507 166.455 174.568C156.152 168.628 146.288 166.435 144.423 169.67C142.558 172.904 149.399 180.341 159.703 186.281C170.006 192.221 179.87 194.413 181.735 191.179Z" fill="#2F2E41"/>
<path d="M211.886 237.014C235.671 237.014 254.953 217.732 254.953 193.946C254.953 170.161 235.671 150.879 211.886 150.879C188.1 150.879 168.818 170.161 168.818 193.946C168.818 217.732 188.1 237.014 211.886 237.014Z" fill="#2F2E41"/>
<path d="M231.511 227.746H218.428V251.188H231.511V227.746Z" fill="#2F2E41"/>
<path d="M205.345 227.746H192.262V251.188H205.345V227.746Z" fill="#2F2E41"/>
<path d="M201.795 197.762C209.925 197.762 216.515 191.172 216.515 183.043C216.515 174.914 209.925 168.324 201.795 168.324C193.666 168.324 187.076 174.914 187.076 183.043C187.076 191.172 193.666 197.762 201.795 197.762Z" fill="white"/>
<path d="M198.249 184.5C200.171 182.579 200.184 179.474 198.276 177.565C196.369 175.656 193.265 175.666 191.342 177.587C189.42 179.507 189.407 182.612 191.315 184.521C193.222 186.43 196.326 186.42 198.249 184.5Z" fill="#3F3D56"/>
<path d="M216.517 165.151C199.327 161.313 187.935 155.569 191.412 139.995C194.89 124.421 211.644 114.908 228.834 118.746C246.024 122.584 257.14 138.321 253.663 153.895C250.185 169.469 233.707 168.989 216.517 165.151Z" fill="#762C85"/>
<path d="M256.923 226.775C260.531 225.817 260.982 215.722 257.929 204.228C254.876 192.733 249.476 184.192 245.868 185.151C242.259 186.109 241.809 196.204 244.862 207.698C247.915 219.193 253.315 227.733 256.923 226.775Z" fill="#2F2E41"/>
<path d="M202.129 206.758C194.222 206.758 186.809 201.725 186.809 205.94C186.809 210.156 194.222 222.022 202.129 222.022C210.035 222.022 217.161 213.699 217.161 209.484C217.161 205.269 210.035 206.758 202.129 206.758Z" fill="white"/>
<path d="M146.471 122.539H142.647C139.22 122.535 135.936 121.172 133.513 118.75C131.09 116.327 129.728 113.042 129.724 109.616V106.405C129.724 98.4522 131.231 91.793 134.203 86.6128C137.805 80.5871 142.007 74.9412 146.745 69.7612C149.89 66.598 152.744 63.1579 155.273 59.4824C157.087 56.627 158.023 53.3023 157.966 49.9199C157.966 41.9419 152.768 38.0635 142.075 38.0635C136.144 38.1305 130.25 39.0152 124.56 40.6924C122.366 41.3187 120.056 41.4273 117.813 41.0094C115.57 40.5916 113.454 39.6588 111.632 38.2845C109.811 36.9101 108.333 35.1317 107.315 33.0893C106.298 31.0469 105.768 28.7961 105.768 26.5142V20.0142C105.755 17.216 106.555 14.4743 108.069 12.1213C109.583 9.7684 111.748 7.90527 114.3 6.75781C124.349 2.46939 135.186 0.337503 146.11 0.500001C157.554 0.500001 167.885 2.42236 176.817 6.21289C185.765 10.0122 192.834 15.3696 197.828 22.1367C202.807 28.8559 205.454 37.0184 205.364 45.3809C205.364 54.3609 202.913 62.1821 198.078 68.6274C193.295 75.0073 186.44 81.9917 177.702 89.3877C173.098 93.2166 168.735 97.3267 164.638 101.694C161.992 104.544 160.122 108.026 159.207 111.806C158.697 114.812 157.138 117.541 154.806 119.506C152.474 121.471 149.521 122.546 146.471 122.539Z" fill="#FECD07"/>
<path d="M144.344 183.311H143.84C137.49 183.306 131.402 180.781 126.914 176.29C122.426 171.799 119.904 165.709 119.904 159.359C119.904 153.01 122.426 146.92 126.914 142.429C131.402 137.938 137.49 135.412 143.84 135.408H144.344C147.491 135.406 150.607 136.024 153.515 137.227C156.423 138.43 159.065 140.194 161.29 142.418C163.516 144.642 165.282 147.283 166.486 150.19C167.691 153.097 168.311 156.213 168.311 159.359C168.311 162.506 167.691 165.622 166.486 168.529C165.282 171.436 163.516 174.077 161.29 176.301C159.065 178.525 156.423 180.289 153.515 181.492C150.607 182.695 147.491 183.313 144.344 183.311Z" fill="#FECD07"/>
<path d="M469.585 256H29.4153C29.04 256 28.68 255.895 28.4146 255.707C28.1491 255.52 28 255.265 28 255C28 254.735 28.1491 254.48 28.4146 254.293C28.68 254.105 29.04 254 29.4153 254H469.585C469.96 254 470.32 254.105 470.585 254.293C470.851 254.48 471 254.735 471 255C471 255.265 470.851 255.52 470.585 255.707C470.32 255.895 469.96 256 469.585 256Z" fill="#CCCCCC"/>
<path d="M406.972 226.79C418.862 226.558 428.442 223.343 428.369 219.61C428.296 215.878 418.598 213.04 406.707 213.273C394.817 213.505 385.237 216.72 385.31 220.453C385.383 224.185 395.081 227.023 406.972 226.79Z" fill="#2F2E41"/>
</g>
<defs>
<linearGradient id="paint0_linear_361_4435" x1="406.254" y1="194.44" x2="485.094" y2="194.44" gradientUnits="userSpaceOnUse">
<stop stop-color="#762C85"/>
<stop offset="1" stop-color="#E71E86"/>
</linearGradient>
<clipPath id="clip0_361_4435">
<rect width="485" height="256" fill="white"/>
</clipPath>
</defs>
</svg>
